<?xml version="1.0" standalone="no"?>
<!DOCTYPE svg PUBLIC "-//W3C//DTD SVG 20010904//EN"
 "http://www.w3.org/TR/2001/REC-SVG-20010904/DTD/svg10.dtd">
<svg version="1.0" xmlns="http://www.w3.org/2000/svg"
 width="2000.000000pt" height="2000.000000pt" viewBox="0 0 2000.000000 2000.000000"
 preserveAspectRatio="xMidYMid meet">

<g transform="translate(0.000000,2000.000000) scale(0.100000,-0.100000)"
fill="#000000" stroke="none">
<path d="M9842 17064 c-371 -62 -717 -323 -994 -749 -52 -79 -6637 -11477
-6781 -11736 -90 -161 -176 -395 -218 -589 -33 -150 -33 -425 -1 -552 50 -201
130 -350 260 -489 213 -227 505 -362 922 -426 109 -16 488 -18 6820 -21 4459
-2 6775 0 6915 7 242 12 424 41 588 95 822 269 1077 1034 638 1908 -83 164
-6711 11649 -6816 11808 -292 447 -660 708 -1060 750 -116 12 -171 11 -273 -6z
m3310 -7468 c1721 -2980 3128 -5422 3128 -5427 0 -5 -2607 -9 -6271 -9 l-6271
0 29 49 c2877 4991 6241 10809 6248 10807 5 -1 1417 -2441 3137 -5420z"/>
<path d="M8770 11652 c0 -10 387 -4018 396 -4094 l6 -58 829 0 c456 0 829 3
829 6 0 14 420 4082 425 4117 l5 37 -1245 0 c-685 0 -1245 -4 -1245 -8z"/>
<path d="M9170 5830 l0 -830 830 0 830 0 0 830 0 830 -830 0 -830 0 0 -830z"/>
</g>
</svg>
