<svg xmlns="http://www.w3.org/2000/svg" viewBox="0 0 800.67 863.87"><defs><style>.cls-1{fill:#8a7b74;}.cls-2{fill:#fff;}.cls-3{fill:#ffafaf;}.cls-4{fill:#e8e0cd;}.cls-5{fill:#b39e7f;}.cls-6{fill:#268081;}.cls-7{fill:#c3c3f7;}.cls-8{fill:#dbdbfa;}.cls-9{fill:#f0f0fd;}.cls-10{fill:#b4b4f5;}.cls-11{fill:#bcbbe9;}.cls-12{fill:#a4a2e1;}.cls-13{fill:#7775d3;}.cls-14{fill:#a25000;}.cls-15{fill:#7a3c00;}.cls-16{fill:#22a500;}.cls-17{fill:#1a8000;}</style></defs><title>Asset 8</title><g id="Layer_2" data-name="Layer 2"><g id="Layer_1-2" data-name="Layer 1"><path class="cls-1" d="M333.26,401.61,0,594,467.41,863.87,800.67,671.46Z"/><path class="cls-2" d="M620.59,603.32,353.52,757.51,364.84,764,631.9,609.85Z"/><path class="cls-2" d="M692.7,645,425.63,799.14,437,805.67,704,651.48Z"/><path class="cls-3" d="M369.53,75.49,161.27,195.72,362,311.62,570.27,191.38Z"/><path class="cls-4" d="M570.27,154.87,362,275.11V694.5L570.27,574.26Z"/><path class="cls-5" d="M161.27,159.22,362,275.11V694.5L161.27,578.6V159.22Z"/><path class="cls-6" d="M182.48,254.68v-19.5L201,245.86v19.5Z"/><path class="cls-6" d="M182.48,386.69v-19.5L201,377.87v19.5Z"/><path class="cls-6" d="M285.32,314.05v-19.5l18.49,10.68v19.5Z"/><path class="cls-6" d="M285.32,446.06v-19.5l18.49,10.68v19.5Z"/><path class="cls-6" d="M204.57,267.8V248.3L223.07,259v19.5Z"/><path class="cls-6" d="M204.57,399.8V380.3L223.07,391v19.49Z"/><path class="cls-6" d="M307.4,327.16v-19.5l18.5,10.68v19.5Z"/><path class="cls-6" d="M307.4,459.17v-19.5l18.5,10.68v19.5Z"/><path class="cls-6" d="M543.49,385.08v-19.5L525,376.26v19.5Z"/><path class="cls-6" d="M543.49,248.46V233.57L525,244.25v14.89Z"/><path class="cls-6" d="M543.49,514.09V499.2L525,509.88v14.89Z"/><path class="cls-6" d="M543.49,554.48V539.6L525,550.28v14.88Z"/><path class="cls-6" d="M440.66,444.45V425l-18.5,10.68v19.5Z"/><path class="cls-6" d="M440.66,307.82V292.94l-18.5,10.68v14.89Z"/><path class="cls-6" d="M440.66,573.45V558.57l-18.5,10.68v14.89Z"/><path class="cls-6" d="M440.66,613.85V599l-18.5,10.68v14.88Z"/><path class="cls-6" d="M521.4,398.19v-19.5l-18.5,10.68v19.5Z"/><path class="cls-6" d="M521.4,261.48V246.6l-18.5,10.68v14.88Z"/><path class="cls-6" d="M521.4,527.11V512.23l-18.5,10.68v14.88Z"/><path class="cls-6" d="M521.4,567.51V552.63l-18.5,10.68v14.88Z"/><path class="cls-6" d="M418.57,457.56v-19.5l-18.5,10.68v19.5Z"/><path class="cls-6" d="M418.57,320.85V306l-18.5,10.68v14.88Z"/><path class="cls-6" d="M418.57,586.48V571.6l-18.5,10.68v14.88Z"/><path class="cls-6" d="M418.57,626.88V612l-18.5,10.68v14.89Z"/><path class="cls-7" d="M128.41,270.28,362,405.15V443.5L128.41,308.64Z"/><path class="cls-7" d="M128.41,405.41,362,540.28v38.35L128.41,443.77Z"/><path class="cls-8" d="M604.39,265.73,362,405.67v38L604.39,303.69Z"/><path class="cls-8" d="M604.39,400.86,362,540.8v38L604.39,438.82Z"/><path class="cls-9" d="M370.46,0,127.78,140.11,361.7,275.17,604.38,135.05Z"/><path class="cls-10" d="M373.71,22.84,167.34,142,358.45,252.33,564.82,133.18,373.71,22.84Z"/><path class="cls-7" d="M373.61,40.23,182.34,150.65,358.45,252.33,549.71,141.9Z"/><path class="cls-8" d="M604.39,135.05,361.7,275.17v35.66L604.39,170.71Z"/><path class="cls-7" d="M128.41,140.48,361.7,275.17v35.66L128.41,176.14Z"/><path class="cls-9" d="M362,382.36,570.26,262.11v-16.2l34.12,19.7L362,405.43,128.4,270.56l32.86-19v14.87Z"/><path class="cls-9" d="M362,517.48,570.26,397.24V381l34.12,19.7L362,540.55,128.4,405.68l32.86-19v14.88L362,517.48Z"/><path class="cls-11" d="M128.41,443.77,65.57,480.05,299.27,615l62.85-36.28Z"/><path class="cls-4" d="M361.7,594.89l-62.84,36.28V730.5l62.84-36.28C375.9,655.51,376.35,622.22,361.7,594.89Z"/><path class="cls-12" d="M362.12,578.69,299.27,615v16.44l62.85-36.28Z"/><path class="cls-5" d="M65.56,496.48,298.85,631.17V730.5L65.56,595.81Z"/><path class="cls-6" d="M169.92,636V622.05l13.22,7.63v13.93Z"/><path class="cls-6" d="M170.85,615.16V601.23l13.22,7.63v13.93Z"/><path class="cls-6" d="M202.11,654.56V640.63l13.22,7.63v13.93Z"/><path class="cls-6" d="M203,633.74V619.81l13.22,7.63v13.93Z"/><path class="cls-6" d="M185.71,645.35V631.42l13.21,7.63V653Z"/><path class="cls-6" d="M186.64,624.53V610.6l13.22,7.63v13.93Z"/><path class="cls-6" d="M217.89,663.93V650l13.22,7.63v13.93Z"/><path class="cls-6" d="M218.82,643.11V629.18L232,636.81v13.93Z"/><path class="cls-6" d="M86.15,607.69V568.94l36.19,20.9v38.75Z"/><path class="cls-13" d="M65.56,480.05l233.6,134.86v16.44L65.56,496.48Z"/><path class="cls-14" d="M358.09,670.15l2.61,61.13h0a2.67,2.67,0,0,1-1.61,2.43,8.68,8.68,0,0,1-7.82,0,2.65,2.65,0,0,1-1.61-2.43h0l2.6-61.13a1.43,1.43,0,0,0,.85,1.19,4.55,4.55,0,0,0,4.13,0A1.45,1.45,0,0,0,358.09,670.15Z"/><path class="cls-15" d="M359.58,705.16a2.89,2.89,0,0,0-1.28-.13c-1.46.22-2.19,1.73-3.87,1.39-.86-.18-1.58-.73-2.42-.94a7.69,7.69,0,0,0-1.26-.13l1.5-35.2a1.43,1.43,0,0,0,.85,1.19,4.55,4.55,0,0,0,4.13,0,1.45,1.45,0,0,0,.86-1.19l1.49,35Z"/><path class="cls-16" d="M355.36,644.72a12.3,12.3,0,0,0,1.8.5,20.55,20.55,0,0,0,2.31-.28,34.09,34.09,0,0,1,4.71-.81c2.77-.13,4.47,1.34,6,3.11,0-.15.19.27.31.37.31.26.62.51.94.74.87.63,1.82,1.11,2.65,1.79,1.56,1.25,1.49,2.71,2.37,4.31a12.6,12.6,0,0,0,3.05,3.13c.49.43,1.12.58,1.5,1.28.79,1.46.54,3,.66,4.58.09,1.16.87,2.11,1,3.27.18,1.44-.28,2.9.07,4.31a13.63,13.63,0,0,1,.64,2.06,7.88,7.88,0,0,1-.56,2.26c-.17.72-.08,1.46-.2,2.19a8.81,8.81,0,0,1-.72,2.23,4.47,4.47,0,0,1-.35.69c-.06.12-.17.48-.22.35a7.48,7.48,0,0,0-.78,2c-.1.72.18,1.45-.13,2.15s-1.27,1.31-1.73,2.08-.5,2-1.07,2.9-1.88,1.16-2.7,1.92c-1,.94-1.54,2.3-2.63,3.21-1.9,1.58-4.19,1.75-6.41,2.66-.18.07-2.15.85-2,1.18a13.21,13.21,0,0,1-3.48,1.83c-.85.22-1.81-.27-2.69-.2-1.34.12-2.42,1.13-3.83.73-1.23-.36-2-1.61-3.29-1.79-1.48-.19-2.59,1.06-4.11.26-.78-.41-1.32-1.14-2.07-1.57s-1.54-.46-2.16-1c-1.18-1.06-1-2.08-2.75-2.36-2.58-.4-3.06-2-4.54-3.8a11.06,11.06,0,0,0-1.51-1.55c-.18-.15-.37-.28-.55-.41s-.28-.26-.21-.19c-1.47-1.44-3.47-2.77-4.24-4.75-.86-2.22.46-4.57.22-6.83-.14-1.41-.46-2.76-.71-4.11.28.06-.07-.58-.1-.87,0-.59-.12-1.17-.19-1.75-.21-1.79-.54-3.93.33-5.6,1-1.94,2.15-3.42,2.76-5.6.45-1.59.15-3.3,1.1-4.75s2.51-1.26,3.81-2.08c1-.59,1.23-1.86,2.14-2.52s2.21-.6,3.2-1a2.7,2.7,0,0,0,1.2-1.19c-.06-.23.53-.64.65-.75a15.76,15.76,0,0,1,2.58-1.88,10.09,10.09,0,0,1,7.43-1.25,22.9,22.9,0,0,1,2.43.78"/><path class="cls-17" d="M328.38,680.7a8.36,8.36,0,0,0,1.21,2.2c1,1.26,2.46,1.89,3.47,3.08.8.94,1,2.34,2,3.09s2.22.66,3.18,1.31,1.33,1.58,2.24,2,1.59.1,2.4.24a8.66,8.66,0,0,1,2.21,1c-.15,0,.25.18.37.27s.5.29.76.42a10.73,10.73,0,0,0,2.45.89c.81.16,1.65.1,2.45.31a8.54,8.54,0,0,0,2.49.72,14.73,14.73,0,0,0,2.32-.62c1.59-.33,3.2.25,4.81.11,1.3-.12,2.39-1,3.7-1,1.76-.06,3.47.28,5.13-.54.79-.39,1-1.09,1.49-1.62,1.12-1.17,3.25-1.5,4.75-2.26a5.11,5.11,0,0,0,2.53-2.42,7.64,7.64,0,0,1-.71,2.08c-.63,1-1.88,1.16-2.7,1.92-1,.94-1.54,2.3-2.63,3.21-1.9,1.58-4.19,1.75-6.41,2.66-.18.07-1.32.81-2,1.18a16.05,16.05,0,0,1-3.48,1.83c-.85.22-1.81-.27-2.68-.2-1.35.12-2.43,1.13-3.84.73-1.23-.36-2-1.61-3.29-1.79-1.48-.19-2.6,1.06-4.11.26-.78-.41-1.32-1.14-2.07-1.57s-1.54-.46-2.16-1c-1.18-1.06-1-2.08-2.75-2.36-2.58-.4-3.06-2-4.54-3.8a11.06,11.06,0,0,0-1.51-1.55c-.18-.15-.36-.28-.55-.41s-.28-.26-.21-.19c-1.47-1.44-3.46-2.77-4.24-4.75a6.33,6.33,0,0,1-.12-3.4Z"/></g></g></svg>