<svg xmlns="http://www.w3.org/2000/svg" viewBox="0 0 930.68 771.21"><defs><style>.cls-1{fill:#dbdbfa;}.cls-2{fill:#92a500;}.cls-3{fill:#bcbbe9;}.cls-4{fill:#ff6969;}.cls-5{fill:#7775d3;}.cls-6{fill:#eee7dd;}.cls-7{fill:#a4a2e1;}.cls-8{fill:#e1d4c2;}.cls-9{fill:#ba9c72;}.cls-10{fill:#d9c9b2;}.cls-11{fill:#a25000;}.cls-12{fill:#7a3c00;}.cls-13{fill:#22a500;}.cls-14{fill:#1a8000;}.cls-15{fill:#268081;}.cls-16{fill:#3835a8;}.cls-17{fill:#2fa0a2;}.cls-18{fill:#c0feff;}.cls-19{fill:#40849d;}.cls-20{fill:#569fba;}.cls-21{fill:#211f63;}</style></defs><title>Asset 7</title><g id="Layer_2" data-name="Layer 2"><g id="Layer_1-2" data-name="Layer 1"><path class="cls-1" d="M388.43,233.89,0,458.15,542.24,771.21,930.68,547,388.43,233.89Z"/><path class="cls-2" d="M421.33,604,337,652.72,506.1,750.35l84.32-48.69Z"/><path class="cls-2" d="M114.14,426.68,29.82,475.37l149.49,86.3L263.63,513Z"/><path class="cls-3" d="M383.49,0,121.64,151.18l80.44,46.44L463.94,46.44Z"/><path class="cls-4" d="M385.89,16.85,150.82,152.56l48.87,28.22L434.76,45.06Z"/><path class="cls-5" d="M385.89,16.85,150.82,152.56l48.87,28.22L434.76,45.06Z"/><path class="cls-6" d="M385.81,29.67,161.88,159l37.81,21.83L423.61,51.49l-37.8-21.82Z"/><path class="cls-7" d="M463.94,46.44,202.08,197.62V464.85L463.94,313.66Z"/><path class="cls-5" d="M121.64,151.18l80.44,46.44V464.85L121.64,418.4V151.18Z"/><path class="cls-8" d="M463.67,81.43,201.82,232.62,520.05,416.34,781.9,265.16Z"/><path class="cls-4" d="M466.07,98.28,231,234,517.65,399.5,752.72,263.78,466.07,98.28Z"/><path class="cls-9" d="M466.07,98.28,231,234,517.65,399.5,752.72,263.78,466.07,98.28Z"/><path class="cls-10" d="M466,111.1,242.06,240.39,517.65,399.5,741.57,270.21,466,111.1Z"/><path class="cls-6" d="M201.82,232.62,520,416.34V648.42L201.82,464.69Z"/><path class="cls-11" d="M224.39,447.9,227,509h0a2.64,2.64,0,0,1-1.61,2.43,8.6,8.6,0,0,1-7.81,0A2.67,2.67,0,0,1,216,509h0l2.6-61.13a1.47,1.47,0,0,0,.85,1.2,4.62,4.62,0,0,0,4.13,0,1.46,1.46,0,0,0,.86-1.2Z"/><path class="cls-12" d="M225.88,482.91a3,3,0,0,0-1.27-.13c-1.47.22-2.2,1.74-3.88,1.39-.86-.18-1.57-.73-2.42-.94a7.58,7.58,0,0,0-1.26-.13l1.49-35.2a1.48,1.48,0,0,0,.86,1.2,4.62,4.62,0,0,0,4.13,0,1.46,1.46,0,0,0,.86-1.2l1.49,35Z"/><path class="cls-13" d="M221.65,422.47a12.3,12.3,0,0,0,1.8.5,20.55,20.55,0,0,0,2.31-.28,35.66,35.66,0,0,1,4.71-.81c2.77-.13,4.48,1.34,6.05,3.11-.06-.15.18.27.3.37.31.26.62.51,1,.74.86.63,1.82,1.12,2.64,1.79,1.55,1.26,1.49,2.71,2.37,4.31a12.77,12.77,0,0,0,3.05,3.13c.49.43,1.12.58,1.5,1.28.79,1.46.55,3,.66,4.58.09,1.16.87,2.11,1,3.27.18,1.43-.28,2.9.07,4.31a14.38,14.38,0,0,1,.64,2.06,7.88,7.88,0,0,1-.56,2.26c-.17.72-.08,1.46-.2,2.19a9.06,9.06,0,0,1-.71,2.23,7.43,7.43,0,0,1-.35.69c-.08.12-.18.48-.23.35a7.83,7.83,0,0,0-.78,2c-.11.72.18,1.45-.13,2.16S245.5,464,245,464.79s-.49,2-1.06,2.9-1.88,1.17-2.7,1.92c-1,.94-1.53,2.3-2.63,3.21-1.89,1.58-4.19,1.75-6.41,2.66-.18.07-2.15.85-2,1.18a13.21,13.21,0,0,1-3.48,1.83c-.84.22-1.81-.27-2.69-.2-1.34.12-2.42,1.13-3.83.73-1.23-.36-2-1.61-3.3-1.78-1.46-.2-2.59,1.05-4.1.25-.78-.41-1.31-1.13-2.07-1.57s-1.54-.45-2.16-1c-1.17-1.06-1-2.08-2.75-2.36-2.57-.41-3.06-2-4.54-3.8a11.06,11.06,0,0,0-1.51-1.55,5.61,5.61,0,0,0-.55-.41c-.08-.05-.27-.26-.21-.19-1.48-1.44-3.47-2.77-4.24-4.75-.86-2.22.47-4.57.23-6.83-.16-1.41-.47-2.76-.72-4.11.29.06-.07-.58-.09-.87,0-.59-.13-1.17-.2-1.75-.2-1.79-.54-3.93.33-5.6,1-1.94,2.15-3.42,2.76-5.59.45-1.6.15-3.31,1.1-4.76s2.51-1.27,3.81-2.07c1-.6,1.23-1.87,2.14-2.53s2.21-.6,3.2-1a2.85,2.85,0,0,0,1.21-1.2c-.07-.23.52-.64.65-.75a14.68,14.68,0,0,1,2.57-1.87,10.05,10.05,0,0,1,7.43-1.25,20.77,20.77,0,0,1,2.43.77"/><path class="cls-14" d="M194.68,458.45a8.41,8.41,0,0,0,1.21,2.21c1,1.25,2.46,1.88,3.47,3.07.8.94,1,2.34,2,3.09s2.22.66,3.19,1.31c.82.56,1.32,1.59,2.23,2s1.6.08,2.4.23a8.13,8.13,0,0,1,2.2,1c-.14,0,.26.18.39.27s.49.29.75.42a10.44,10.44,0,0,0,2.45.89c.81.16,1.64.1,2.44.31a8.31,8.31,0,0,0,2.5.72,14.73,14.73,0,0,0,2.32-.62c1.59-.33,3.21.25,4.81.11,1.3-.12,2.4-.95,3.7-1,1.76-.06,3.47.28,5.13-.54.79-.39,1-1.09,1.49-1.62,1.12-1.17,3.25-1.5,4.74-2.26a5.09,5.09,0,0,0,2.54-2.42,7.64,7.64,0,0,1-.71,2.08c-.63,1-1.88,1.17-2.7,1.92-1,.94-1.53,2.3-2.63,3.21-1.89,1.58-4.19,1.75-6.42,2.66-.17.07-1.31.81-2,1.18a15.82,15.82,0,0,1-3.48,1.83c-.84.22-1.81-.27-2.69-.2-1.34.12-2.42,1.13-3.83.73-1.23-.36-2-1.61-3.3-1.78-1.47-.2-2.59,1.05-4.1.25-.78-.41-1.31-1.13-2.07-1.57s-1.54-.45-2.16-1c-1.17-1.06-1-2.08-2.75-2.36-2.57-.41-3.06-2-4.54-3.8a11.06,11.06,0,0,0-1.51-1.55,5.61,5.61,0,0,0-.55-.41,1.71,1.71,0,0,1-.21-.19c-1.48-1.44-3.47-2.77-4.24-4.75a6.33,6.33,0,0,1-.12-3.4Z"/><path class="cls-15" d="M404.08,410.85l-20.4-11.78V500.85l20.4,11.78Z"/><path class="cls-15" d="M331.27,368.82,310.88,357V458.82l20.39,11.77Z"/><path class="cls-15" d="M365.63,388.66l-20.4-11.78V478.66l20.4,11.77Z"/><path class="cls-3" d="M778,227.79,516.19,379l80.44,46.45L858.48,274.24Z"/><path class="cls-5" d="M780.43,244.64,545.36,380.36l48.88,28.21L829.31,272.85Z"/><path class="cls-6" d="M780.36,257.46,556.43,386.75l37.8,21.82L818.16,279.29Z"/><path class="cls-7" d="M858.48,274.24,596.63,425.42V692.64L858.48,541.46Z"/><path class="cls-5" d="M516.19,379l80.44,46.45V692.64l-80.44-46.45Z"/><path class="cls-16" d="M582.86,443.71l-51.23-29.57V636.87l51.23,29.58Z"/><path class="cls-16" d="M186.77,215l-51.23-29.58V408.2l51.23,29.57Z"/><path class="cls-17" d="M582.86,443.71l-43.65-25.19V630.64l43.65,25.2Z"/><path class="cls-18" d="M572.78,437.9l-4.17-2.41V647.62l4.17,2.4V437.9Z"/><path class="cls-18" d="M554.63,427.42,550.46,425V637.14l4.17,2.4V427.42Z"/><path class="cls-17" d="M186.77,215l-43.64-25.2V402l43.64,25.2Z"/><path class="cls-18" d="M175.68,208.63l-4.17-2.4V418.35l4.17,2.41Z"/><path class="cls-18" d="M157.53,198.15l-4.17-2.4V407.87l4.17,2.41Z"/><path class="cls-17" d="M448.36,507.65,428,495.87v13.72l20.4,11.77Z"/><path class="cls-17" d="M448.36,530.94,428,519.16v13.72l20.4,11.77Z"/><path class="cls-17" d="M237.1,385.68,216.7,373.9v13.72l20.4,11.78Z"/><path class="cls-15" d="M675.41,554.55l20.39-11.77V556.5l-20.39,11.77Z"/><path class="cls-15" d="M793.9,486.14l20.4-11.78v13.72l-20.4,11.78V486.14Z"/><path class="cls-17" d="M237.1,409l-20.4-11.78v13.72l20.4,11.78Z"/><path class="cls-15" d="M675.41,577.84l20.39-11.77v13.72l-20.39,11.77Z"/><path class="cls-15" d="M793.9,509.43l20.4-11.78v13.72l-20.4,11.77Z"/><path class="cls-17" d="M474.88,523l-20.4-11.77V524.9l20.4,11.78Z"/><path class="cls-17" d="M474.88,546.25l-20.4-11.77v13.71L474.88,560Z"/><path class="cls-17" d="M263.63,401l-20.4-11.77v13.71l20.4,11.78Z"/><path class="cls-15" d="M648.87,569.87l20.4-11.78v13.72l-20.4,11.77Z"/><path class="cls-15" d="M767.37,501.45l20.4-11.77v13.71l-20.4,11.78Z"/><path class="cls-17" d="M263.63,424.28l-20.4-11.77v13.72L263.63,438Z"/><path class="cls-15" d="M648.87,593.16l20.4-11.78V595.1l-20.4,11.78Z"/><path class="cls-15" d="M767.37,524.74,787.77,513v13.71l-20.4,11.78Z"/><path class="cls-17" d="M502.42,538.86,482,527.08V540.8l20.4,11.77Z"/><path class="cls-15" d="M702.4,539l20.4-11.77v13.72l-20.4,11.77Z"/><path class="cls-15" d="M820.9,470.55l20.4-11.78v13.72l-20.4,11.77Z"/><path class="cls-17" d="M502.42,562.15,482,550.37v13.72l20.4,11.77Z"/><path class="cls-15" d="M702.4,562.25l20.4-11.77V564.2L702.4,576Z"/><path class="cls-15" d="M820.9,493.84l20.4-11.78v13.72l-20.4,11.78Z"/><path class="cls-17" d="M291.16,416.89l-20.4-11.78v13.72l20.4,11.78Z"/><path class="cls-15" d="M621.35,585.76,641.75,574V587.7l-20.4,11.78Z"/><path class="cls-15" d="M739.85,517.35l20.39-11.78v13.72l-20.39,11.77Z"/><path class="cls-17" d="M291.16,440.18l-20.4-11.78v13.72l20.4,11.78Z"/><path class="cls-15" d="M621.35,609.05l20.4-11.77V611l-20.4,11.77Z"/><path class="cls-15" d="M739.85,540.64l20.39-11.78v13.72l-20.39,11.77Z"/><path class="cls-7" d="M404.16,535.9l14.27-8.24v62.1L404.16,598Z"/><path class="cls-19" d="M353.56,565.12l46-26.57v56.8l-46,26.57Z"/><path class="cls-5" d="M404.16,535.9V598l-4.58-2.65V533.26Z"/><path class="cls-20" d="M353.56,565.12v56.8L234.22,553v-56.8Z"/><path class="cls-16" d="M353.56,565.12v56.8l-4.51-2.6v-56.8Z"/><path class="cls-21" d="M353.56,565.12v56.8l4.5-2.6v-56.8Z"/><path class="cls-21" d="M372.06,554.44v56.8l4.51-2.6v-56.8Z"/><path class="cls-21" d="M391,543.53v56.8l4.51-2.6v-56.8Z"/><path class="cls-16" d="M336.06,555v56.81l-4.51-2.61v-56.8Z"/><path class="cls-16" d="M301.61,535.14v56.8l-4.51-2.61v-56.8Z"/><path class="cls-16" d="M266.48,514.85v56.8l-4.51-2.6v-56.8Z"/><path class="cls-16" d="M319,545.16V602l-4.51-2.6V542.55Z"/><path class="cls-16" d="M353.56,579.11V585l-119.34-68.9v-5.85Z"/><path class="cls-16" d="M353.56,616.08v5.84L234.22,553v-5.85Z"/><path class="cls-21" d="M353.56,579.11V585l46-26.58v-5.85Z"/><path class="cls-21" d="M353.56,616.08v5.84l46-26.57V589.5Z"/><path class="cls-16" d="M284.52,525.27v56.8l-4.51-2.6v-56.8Z"/><path class="cls-16" d="M249.38,505v56.8l-4.51-2.6v-56.8Z"/><path class="cls-7" d="M350.41,534l68-39.27v33l-68,39.27Z"/><path class="cls-5" d="M350.41,534v33L226.65,495.51v-33Z"/><path class="cls-3" d="M294.68,423.27l123.76,71.46-68,39.27L226.65,462.55Z"/><path class="cls-5" d="M294.73,427.65l116.13,67-60.51,34.94L234.22,462.58Z"/><path class="cls-10" d="M294.66,433.26,406,497.52l-55.61,32.11L239,465.37l55.62-32.11Z"/><path class="cls-17" d="M448.36,436.41,428,424.64v13.72l20.4,11.77Z"/><path class="cls-17" d="M448.36,459.71,428,447.93v13.72l20.4,11.77Z"/><path class="cls-17" d="M237.1,314.45l-20.4-11.78v13.72l20.4,11.77Z"/><path class="cls-15" d="M675.41,483.32l20.39-11.77v13.71L675.41,497Z"/><path class="cls-15" d="M675.41,413.57l20.39-11.78v13.72l-20.39,11.78Z"/><path class="cls-15" d="M793.9,414.91l20.4-11.78v13.72l-20.4,11.77Z"/><path class="cls-15" d="M793.9,345.16l20.4-11.78V347.1l-20.4,11.77Z"/><path class="cls-17" d="M237.1,337.74,216.7,326v13.72l20.4,11.78V337.74Z"/><path class="cls-15" d="M675.41,506.61l20.39-11.77v13.71l-20.39,11.78Z"/><path class="cls-15" d="M675.41,436.86l20.39-11.77V438.8l-20.39,11.78Z"/><path class="cls-15" d="M793.9,438.2l20.4-11.78v13.72l-20.4,11.78Z"/><path class="cls-15" d="M793.9,368.45l20.4-11.78v13.72l-20.4,11.77Z"/><path class="cls-17" d="M474.88,451.73,454.48,440v13.72l20.4,11.78Z"/><path class="cls-17" d="M474.88,475l-20.4-11.78V477l20.4,11.78Z"/><path class="cls-17" d="M263.63,329.76,243.23,318V331.7l20.4,11.78Z"/><path class="cls-15" d="M648.87,498.64l20.4-11.78v13.72l-20.4,11.77Z"/><path class="cls-15" d="M648.87,428.89l20.4-11.78v13.72l-20.4,11.77Z"/><path class="cls-15" d="M767.37,430.22l20.4-11.77v13.71l-20.4,11.78V430.22Z"/><path class="cls-15" d="M767.37,360.47l20.4-11.78v13.72l-20.4,11.78Z"/><path class="cls-17" d="M263.63,353.05l-20.4-11.77V355l20.4,11.78Z"/><path class="cls-15" d="M648.87,521.93l20.4-11.78v13.72l-20.4,11.77Z"/><path class="cls-15" d="M648.87,452.18l20.4-11.78v13.72l-20.4,11.77Z"/><path class="cls-15" d="M767.37,453.51l20.4-11.77v13.71l-20.4,11.78Z"/><path class="cls-15" d="M767.37,383.76,787.77,372V385.7l-20.4,11.78Z"/><path class="cls-17" d="M502.42,467.62,482,455.85v13.72l20.4,11.77V467.62Z"/><path class="cls-15" d="M702.4,467.73,722.8,456v13.71l-20.4,11.78Z"/><path class="cls-15" d="M702.4,398l20.4-11.78v13.72L702.4,411.7V398Z"/><path class="cls-15" d="M820.9,399.31l20.4-11.77v13.72L820.9,413Z"/><path class="cls-15" d="M820.9,329.56l20.4-11.77v13.72l-20.4,11.77Z"/><path class="cls-17" d="M502.42,490.92,482,479.14v13.72l20.4,11.77Z"/><path class="cls-15" d="M702.4,491l20.4-11.77V493l-20.4,11.78Z"/><path class="cls-15" d="M702.4,421.27l20.4-11.78v13.72L702.4,435Z"/><path class="cls-15" d="M820.9,422.6l20.4-11.77v13.72l-20.4,11.77Z"/><path class="cls-15" d="M820.9,352.86l20.4-11.78V354.8l-20.4,11.77Z"/><path class="cls-17" d="M291.16,345.66l-20.4-11.78V347.6l20.4,11.77Z"/><path class="cls-15" d="M621.35,514.53l20.4-11.78v13.72l-20.4,11.78Z"/><path class="cls-15" d="M621.35,444.78,641.75,433v13.72l-20.4,11.78Z"/><path class="cls-15" d="M739.85,446.12l20.39-11.78v13.72l-20.39,11.77Z"/><path class="cls-15" d="M739.85,376.36l20.39-11.77v13.72l-20.39,11.77Z"/><path class="cls-17" d="M291.16,369l-20.4-11.78v13.72l20.4,11.77Z"/><path class="cls-15" d="M621.35,537.82l20.4-11.77v13.71l-20.4,11.78Z"/><path class="cls-15" d="M621.35,468.07l20.4-11.78V470l-20.4,11.78Z"/><path class="cls-15" d="M739.85,469.41l20.39-11.78v13.72l-20.39,11.77Z"/><path class="cls-15" d="M739.85,399.65l20.39-11.77V401.6l-20.39,11.77Z"/><path class="cls-11" d="M434.24,569.06l2.6,61.12h0a2.66,2.66,0,0,1-1.61,2.44,8.66,8.66,0,0,1-7.81,0,2.64,2.64,0,0,1-1.61-2.44h0l2.59-61.12a1.46,1.46,0,0,0,.85,1.19,4.58,4.58,0,0,0,4.14,0,1.46,1.46,0,0,0,.86-1.19Z"/><path class="cls-12" d="M435.74,604.07a2.89,2.89,0,0,0-1.28-.13c-1.47.22-2.19,1.73-3.87,1.38-.87-.17-1.58-.72-2.43-.93a6.65,6.65,0,0,0-1.26-.13l1.5-35.2a1.44,1.44,0,0,0,.85,1.19,4.55,4.55,0,0,0,4.13,0,1.44,1.44,0,0,0,.86-1.19l1.5,35Z"/><path class="cls-13" d="M431.5,543.63a12.17,12.17,0,0,0,1.79.5,23.09,23.09,0,0,0,2.31-.29,34.32,34.32,0,0,1,4.71-.8c2.78-.13,4.48,1.33,6.05,3.11-.05-.15.19.26.31.36.3.26.62.51.94.75.86.62,1.82,1.11,2.65,1.78,1.55,1.26,1.48,2.72,2.37,4.31a12.6,12.6,0,0,0,3,3.14c.49.43,1.13.58,1.5,1.28.8,1.46.55,3,.67,4.58.08,1.16.87,2.11,1,3.27.18,1.43-.28,2.9.07,4.31a12.55,12.55,0,0,1,.63,2.06,7.74,7.74,0,0,1-.56,2.25c-.16.73-.08,1.47-.19,2.2a9.22,9.22,0,0,1-.72,2.23,7.46,7.46,0,0,1-.35.69c-.07.12-.17.48-.22.34a7.61,7.61,0,0,0-.78,2c-.11.73.18,1.45-.13,2.16s-1.27,1.31-1.74,2.07-.49,2-1.06,2.9-1.88,1.17-2.7,1.92c-1,1-1.54,2.3-2.63,3.21-1.9,1.59-4.19,1.76-6.42,2.66-.17.08-2.15.85-2,1.19a13.37,13.37,0,0,1-3.48,1.83c-.85.22-1.81-.28-2.69-.2-1.34.12-2.42,1.13-3.83.72-1.23-.35-2-1.6-3.3-1.78-1.47-.19-2.59,1.06-4.11.26-.78-.41-1.31-1.14-2.07-1.58s-1.53-.45-2.15-1c-1.18-1.06-1-2.09-2.75-2.37-2.58-.4-3.06-2-4.54-3.8a13,13,0,0,0-1.51-1.55l-.56-.41a2,2,0,0,1-.2-.19c-1.48-1.43-3.47-2.77-4.24-4.75-.86-2.21.46-4.56.22-6.83-.15-1.4-.46-2.75-.71-4.11.28.06-.08-.58-.1-.87,0-.58-.12-1.17-.19-1.75-.21-1.78-.55-3.93.32-5.59,1-1.94,2.16-3.43,2.77-5.6.45-1.6.14-3.3,1.1-4.76s2.5-1.26,3.8-2.07c1-.6,1.23-1.86,2.14-2.53s2.22-.6,3.21-1a2.81,2.81,0,0,0,1.2-1.19c-.07-.23.52-.64.65-.75a15,15,0,0,1,2.58-1.88,10,10,0,0,1,7.42-1.25,23.08,23.08,0,0,1,2.44.78"/><path class="cls-14" d="M404.54,579.61a8.23,8.23,0,0,0,1.21,2.2c1,1.26,2.45,1.88,3.46,3.07.81,1,1,2.35,2,3.1s2.23.66,3.19,1.31,1.32,1.58,2.24,2c.77.37,1.59.09,2.4.24a8.26,8.26,0,0,1,2.2,1c-.15,0,.25.18.38.26a5.08,5.08,0,0,0,.76.42,10.15,10.15,0,0,0,2.45.9c.81.16,1.64.09,2.44.31a8.86,8.86,0,0,0,2.49.72,15.14,15.14,0,0,0,2.33-.62c1.58-.33,3.2.24,4.8.1,1.3-.11,2.4-.94,3.7-1,1.77-.07,3.47.28,5.14-.54.79-.4,1-1.1,1.48-1.62,1.12-1.18,3.25-1.5,4.75-2.26a5.15,5.15,0,0,0,2.53-2.42,7.9,7.9,0,0,1-.7,2.07c-.63,1-1.88,1.17-2.7,1.92-1,1-1.54,2.3-2.63,3.21-1.9,1.59-4.19,1.76-6.42,2.66-.17.08-1.31.82-2,1.19a16.35,16.35,0,0,1-3.49,1.83c-.84.22-1.8-.28-2.68-.2-1.35.12-2.43,1.13-3.84.72-1.23-.35-2-1.6-3.29-1.78-1.47-.19-2.59,1.06-4.11.26-.78-.41-1.31-1.14-2.07-1.58s-1.54-.45-2.16-1c-1.17-1.06-1-2.09-2.74-2.37-2.58-.4-3.06-2-4.55-3.8a12.21,12.21,0,0,0-1.5-1.55l-.56-.41c-.07-.05-.27-.26-.21-.19-1.47-1.43-3.46-2.77-4.23-4.75a6.2,6.2,0,0,1-.12-3.39Z"/></g></g></svg>