<svg xmlns="http://www.w3.org/2000/svg" viewBox="0 0 852.73 616.54"><defs><style>.cls-1{fill:#9eaaeb;}.cls-2{fill:#92a500;}.cls-3{fill:#fff;}.cls-4{fill:#bfc7f2;}.cls-5{fill:#003680;}.cls-6{fill:#002860;}.cls-7{fill:#dbdbfa;}.cls-8{fill:#7485e2;}.cls-9{fill:#bdc5f2;}.cls-10{fill:#c3c3f7;}.cls-11{fill:#a25000;}.cls-12{fill:#7a3c00;}.cls-13{fill:#22a500;}.cls-14{fill:#1a8000;}</style></defs><title>Asset 2</title><g id="Layer_2" data-name="Layer 2"><g id="Layer_1-2" data-name="Layer 1"><path class="cls-1" d="M301.78,124.22,0,298.45,551,616.54,852.73,442.31,301.78,124.22Z"/><path class="cls-2" d="M147.43,241.05,24,312.32l154.91,89.43,123.43-71.26L147.43,241.05Z"/><path class="cls-3" d="M416.11,493.73l74.22-42.85-7.69-4.44-74.22,42.85Z"/><path class="cls-3" d="M525.06,556.63l74.22-42.85-7.69-4.44-74.22,42.85Z"/><path class="cls-3" d="M450,513.27l74.21-42.85L516.47,466l-74.22,42.85Z"/><path class="cls-3" d="M558.88,576.16l74.22-42.85-7.69-4.44L551.2,571.73l7.68,4.43Z"/><path class="cls-3" d="M486,534.07l74.22-42.85-7.69-4.44L478.3,529.63l7.68,4.44Z"/><path class="cls-4" d="M161,86.36l189,109.09V333.28L161,224.19Z"/><path class="cls-5" d="M177.78,178.56l14.38,8.31V210.5l-14.38-8.3Z"/><path class="cls-5" d="M313.67,257l14.38,8.31v23.63l-14.38-8.3Z"/><path class="cls-6" d="M319.67,270.32l8.39,4.84v13.77l-8.39-4.83V270.32Z"/><path class="cls-5" d="M232.08,209.89l14.39,8.31v23.64l-14.39-8.31Z"/><path class="cls-6" d="M238.1,223.22l8.38,4.84v13.78L238.1,237Z"/><path class="cls-6" d="M183.43,191.65l8.38,4.85v13.77l-8.38-4.84Z"/><path class="cls-5" d="M286.27,241.21l14.39,8.3v23.64l-14.39-8.31Z"/><path class="cls-6" d="M292.31,254.51l8.38,4.85v13.77l-8.38-4.84V254.51Z"/><path class="cls-5" d="M204.69,194.11l14.38,8.3v23.64l-14.38-8.31Z"/><path class="cls-5" d="M259.36,225.67,273.74,234v23.63l-14.38-8.3Z"/><path class="cls-6" d="M265.37,239l8.38,4.84v13.78l-8.38-4.84Z"/><path class="cls-6" d="M210.7,207.39l8.38,4.84V226l-8.38-4.84Z"/><path class="cls-5" d="M178.53,139.07l14.38,8.3V171l-14.38-8.3Z"/><path class="cls-5" d="M232.83,170.4l14.38,8.3v23.63L232.83,194Z"/><path class="cls-6" d="M238.84,183.72l8.38,4.84v13.77l-8.38-4.83Z"/><path class="cls-6" d="M184.17,152.16l8.38,4.84v13.77l-8.38-4.84Z"/><path class="cls-5" d="M287,201.71,301.4,210v23.64L287,225.35Z"/><path class="cls-6" d="M293.05,215l8.38,4.83v13.78l-8.38-4.84Z"/><path class="cls-5" d="M205.43,154.61l14.38,8.3v23.64l-14.38-8.3Z"/><path class="cls-5" d="M260.1,186.17l14.39,8.3v23.64l-14.39-8.3Z"/><path class="cls-6" d="M266.11,199.47l8.38,4.84v13.77l-8.38-4.83Z"/><path class="cls-6" d="M211.43,167.91l8.39,4.84v13.77l-8.39-4.84Z"/><path class="cls-4" d="M667.78,379l125.11-72.23V444.58L667.78,516.81Z"/><path class="cls-1" d="M667.78,381.31l125.11-72.22v11.54L667.78,392.86Z"/><path class="cls-5" d="M729.16,397.36l15.24-8.8v84l-15.24,8.8Z"/><path class="cls-5" d="M756.28,381.7l15.23-8.8v84l-15.23,8.8Z"/><path class="cls-5" d="M702.1,413l15.24-8.81v84L702.1,497Z"/><path class="cls-4" d="M673.18,375.42l130.5-75.34V312l-130.5,75.34Z"/><path class="cls-3" d="M476.09,261.62,411.41,299l-130-75.05L476.59,111.24,803.68,300.08l-130.5,75.34Z"/><path class="cls-7" d="M476.1,257.8l-64.69,37.35L284.72,222,476.59,111.23,800.33,298.14,673.15,371.57Z"/><path class="cls-7" d="M283.93,0,559.44,159.07,432.26,232.49,156.75,73.43Z"/><path class="cls-8" d="M287,18.2,536.69,162.37,435.64,220.71,185.93,76.54Z"/><path class="cls-1" d="M288.14,31.37l223,128.74L420.88,212.2l-223-128.74Z"/><path class="cls-3" d="M157.69,74,372.47,198l4.89,6.64-223-128.74L157.69,74Z"/><path class="cls-7" d="M154.37,75.88l197.1,113.79v12L154.37,87.82V75.88Z"/><path class="cls-1" d="M425.66,81.83,580,170.92l-14.25,8.23L411.41,90.05l14.25-8.22Z"/><path class="cls-9" d="M347.73,185.62l13.58,7.84-35.66,20.59-13.58-7.84Z"/><path class="cls-8" d="M476.09,244.07,413.5,280.2,312.28,221.76l163.64-94.47L774.23,299.52,673.18,357.86,476.09,244.07Z"/><path class="cls-1" d="M476.09,244.07,413.5,280.2l-89.32-51.56L477.1,140.35,763.52,305.71l-90.34,52.15L476.09,244.07Z"/><path class="cls-7" d="M329.37,143.35,414,192.22v84.12l-84.64-48.87Z"/><path class="cls-4" d="M414,192.22l149-86v84.12l-149,86Z"/><path class="cls-5" d="M460.15,186.46l-9.72,5.61v13.45l9.72-5.61Z"/><path class="cls-6" d="M456.33,194.25l-5.66,3.27v7.84l5.66-3.27Z"/><path class="cls-5" d="M442,197l-9.71,5.61V216L442,210.4Z"/><path class="cls-6" d="M437.91,204.89l-5.66,3.27V216l5.66-3.27Z"/><path class="cls-3" d="M478.39,57.31,563,106.17l-149,86-84.64-48.86Z"/><path class="cls-7" d="M478.39,57.31l83.05,47.94L414,190.38,331,142.43Z"/><path class="cls-7" d="M292.2,233.74l124.62,71.95V443.52L292.2,371.57Z"/><path class="cls-10" d="M292.2,233.74l124.62,71.95v13.87L292.2,247.61Z"/><path class="cls-5" d="M366.37,311.09l14.38,8.3v37l-14.38-8.3Z"/><path class="cls-6" d="M373.56,320.63l7.2,4.15v31.61l-7.2-4.15Z"/><path class="cls-5" d="M380.75,204.69l10.51,6.08v28.91l-10.51-6.07Z"/><path class="cls-5" d="M339,295.31l14.38,8.3v37L339,332.31Z"/><path class="cls-6" d="M346,304.72l7.19,4.15v31.61L346,336.33Z"/><path class="cls-5" d="M360.73,193.16l10.51,6.07v28.92l-10.51-6.07Z"/><path class="cls-5" d="M312.06,279.77l14.39,8.31v37l-14.39-8.3Z"/><path class="cls-6" d="M319.36,289.34l7.19,4.15v31.6l-7.19-4.15Z"/><path class="cls-5" d="M341.06,181.81l10.51,6.07v28.91l-10.51-6.07Z"/><path class="cls-7" d="M478.83,269.89,667.79,379V516.81l-189-109.09Z"/><path class="cls-5" d="M495.85,322.28l14.39,8.3v23.64l-14.39-8.3Z"/><path class="cls-5" d="M495,361.68l14.38,8.3v23.64L495,385.31Z"/><path class="cls-5" d="M631.74,400.7,646.13,409v23.64l-14.39-8.31Z"/><path class="cls-5" d="M630.85,440.1l14.38,8.3V472l-14.38-8.3Z"/><path class="cls-6" d="M637.74,414l8.39,4.84v13.78l-8.39-4.84Z"/><path class="cls-6" d="M636.84,453.42l8.38,4.84V472l-8.38-4.84Z"/><path class="cls-5" d="M550.16,353.61l14.38,8.3v23.64l-14.38-8.31Z"/><path class="cls-5" d="M549.26,393l14.39,8.3v23.64l-14.39-8.3Z"/><path class="cls-6" d="M556.17,366.94l8.39,4.84v13.78l-8.39-4.84Z"/><path class="cls-6" d="M555.28,406.33l8.38,4.84V425l-8.38-4.84Z"/><path class="cls-6" d="M501.5,335.37l8.38,4.84V354l-8.38-4.85Z"/><path class="cls-6" d="M500.61,374.77l8.38,4.84v13.78l-8.38-4.84Z"/><path class="cls-5" d="M604.35,384.92l14.38,8.3v23.64l-14.38-8.3Z"/><path class="cls-5" d="M603.46,424.31l14.38,8.31v23.63L603.46,448Z"/><path class="cls-6" d="M610.38,398.23l8.38,4.84v13.78L610.38,412Z"/><path class="cls-6" d="M609.48,437.63l8.38,4.84v13.78l-8.38-4.84Z"/><path class="cls-5" d="M522.76,337.82l14.39,8.3v23.64l-14.39-8.3Z"/><path class="cls-5" d="M521.87,377.21l14.38,8.31v23.63l-14.38-8.3Z"/><path class="cls-5" d="M577.44,369.38l14.38,8.3v23.64L577.44,393Z"/><path class="cls-5" d="M576.54,408.78l14.39,8.3v23.64l-14.39-8.31Z"/><path class="cls-6" d="M583.44,382.68l8.38,4.84V401.3l-8.38-4.85Z"/><path class="cls-6" d="M582.54,422.07l8.38,4.84v13.78l-8.38-4.84Z"/><path class="cls-6" d="M528.77,351.12l8.38,4.84v13.77l-8.38-4.84Z"/><path class="cls-6" d="M527.87,390.51l8.38,4.84v13.78l-8.38-4.84Z"/><path class="cls-10" d="M478.83,269.89,667.79,379v13.87l-189-109.09Z"/><path class="cls-4" d="M416.82,305.83l62-35.8V407.72l-62,35.8Z"/><path class="cls-1" d="M416.82,305.83l62-35.8v13.18l-62,35.8Z"/><path class="cls-4" d="M411.41,299l64.67-37.34v11.95l-64.67,37.34V299Z"/><path class="cls-7" d="M281.42,223.91l130,75v12l-130-75.05Z"/><path class="cls-7" d="M476.09,261.62l197.09,113.8v11.95L476.09,273.57Z"/><path class="cls-11" d="M148.09,223l2.6,61.12h0a2.64,2.64,0,0,1-1.61,2.44,8.66,8.66,0,0,1-7.81,0,2.66,2.66,0,0,1-1.61-2.44h0l2.6-61.12a1.44,1.44,0,0,0,.85,1.19,4.55,4.55,0,0,0,4.13,0,1.46,1.46,0,0,0,.86-1.19Z"/><path class="cls-12" d="M149.58,258a2.89,2.89,0,0,0-1.28-.13c-1.46.22-2.19,1.73-3.87,1.39-.86-.18-1.58-.73-2.43-.94a7.46,7.46,0,0,0-1.25-.13l1.49-35.2a1.43,1.43,0,0,0,.86,1.19,4.55,4.55,0,0,0,4.13,0,1.43,1.43,0,0,0,.86-1.19Z"/><path class="cls-13" d="M145.35,197.59a11.16,11.16,0,0,0,1.8.5,18.32,18.32,0,0,0,2.3-.28,36.09,36.09,0,0,1,4.72-.81c2.77-.12,4.47,1.34,6,3.12-.05-.15.19.26.31.37.31.25.62.5.94.74.87.62,1.82,1.11,2.65,1.78,1.55,1.26,1.49,2.72,2.37,4.31a12.64,12.64,0,0,0,3.05,3.14c.49.43,1.12.58,1.5,1.28.79,1.46.54,3,.66,4.57.09,1.17.87,2.12,1,3.28.18,1.43-.28,2.9.07,4.31a12.55,12.55,0,0,1,.63,2.06,7.72,7.72,0,0,1-.55,2.25c-.17.72-.08,1.47-.2,2.2a9.34,9.34,0,0,1-.71,2.23,6.47,6.47,0,0,1-.36.69c-.07.12-.17.48-.22.35a7.63,7.63,0,0,0-.78,2c-.11.73.18,1.45-.13,2.16s-1.27,1.31-1.74,2.07-.49,2-1.06,2.9-1.88,1.17-2.7,1.92c-1,1-1.54,2.3-2.63,3.21-1.9,1.59-4.19,1.76-6.42,2.66-.17.08-2.14.85-2,1.19a13.68,13.68,0,0,1-3.48,1.83c-.84.22-1.81-.28-2.69-.2-1.34.12-2.42,1.13-3.83.72-1.23-.35-2-1.61-3.3-1.78-1.47-.2-2.59,1.06-4.1.26-.79-.41-1.31-1.14-2.07-1.58s-1.54-.45-2.16-1c-1.18-1.06-1-2.09-2.75-2.37-2.57-.4-3.06-2-4.54-3.8a11.06,11.06,0,0,0-1.51-1.55l-.55-.41a1.71,1.71,0,0,1-.21-.19c-1.48-1.43-3.47-2.77-4.24-4.75-.86-2.21.46-4.56.22-6.83-.15-1.4-.46-2.76-.71-4.11.29.06-.08-.58-.1-.87,0-.58-.12-1.17-.19-1.75-.21-1.78-.54-3.93.33-5.59,1-1.94,2.15-3.43,2.76-5.6.45-1.6.14-3.3,1.1-4.76s2.51-1.26,3.81-2.07c1-.6,1.23-1.86,2.14-2.53s2.21-.6,3.2-1a2.73,2.73,0,0,0,1.2-1.2c-.06-.22.53-.63.65-.74a15.76,15.76,0,0,1,2.58-1.88,10,10,0,0,1,7.43-1.25,20.82,20.82,0,0,1,2.43.78"/><path class="cls-14" d="M118.38,233.57a8.52,8.52,0,0,0,1.21,2.2c1,1.26,2.46,1.88,3.47,3.08.8.94,1,2.34,2,3.09s2.23.66,3.19,1.31,1.33,1.58,2.24,2,1.6.09,2.4.24a8.13,8.13,0,0,1,2.2,1c-.14,0,.25.18.39.26a5.52,5.52,0,0,0,.75.42,10.3,10.3,0,0,0,2.45.9c.81.16,1.64.1,2.44.31a8.93,8.93,0,0,0,2.5.72,14.73,14.73,0,0,0,2.32-.62c1.59-.33,3.21.24,4.81.1,1.3-.11,2.4-.94,3.69-1,1.77-.06,3.47.28,5.14-.54.79-.39,1-1.1,1.49-1.62,1.12-1.17,3.25-1.5,4.74-2.26a5.18,5.18,0,0,0,2.54-2.42,7.46,7.46,0,0,1-.71,2.07c-.63,1-1.88,1.17-2.7,1.92-1,.95-1.54,2.3-2.63,3.21-1.9,1.59-4.19,1.76-6.42,2.67-.17.07-1.31.81-2,1.18a16.5,16.5,0,0,1-3.48,1.83c-.84.22-1.81-.27-2.69-.2-1.34.12-2.42,1.13-3.83.72-1.23-.35-2-1.6-3.3-1.77-1.47-.2-2.59,1-4.1.25-.78-.41-1.31-1.14-2.07-1.58s-1.54-.45-2.16-1c-1.18-1.06-1-2.09-2.75-2.36-2.57-.41-3.06-2-4.54-3.81a11,11,0,0,0-1.51-1.54c-.18-.15-.37-.28-.55-.42s-.28-.25-.21-.18c-1.48-1.44-3.47-2.77-4.24-4.75a6.33,6.33,0,0,1-.12-3.4Z"/></g></g></svg>