<svg xmlns="http://www.w3.org/2000/svg" viewBox="0 0 695.54 678.46"><defs><style>.cls-1{fill:#dbdbfa;}.cls-2{fill:#92a500;}.cls-3{fill:#aa2eff;}.cls-4{fill:#8a17da;}.cls-5{fill:#2d3cb7;}.cls-6{fill:#c167ff;}.cls-7{fill:#b64cff;}.cls-8{fill:#c97bff;}.cls-9{fill:#dfb1ff;}.cls-10{fill:#d9f2ff;}.cls-11{fill:#ebceff;}.cls-12{fill:#912cd7;}.cls-13{fill:#d08cff;}.cls-14{fill:#a25000;}.cls-15{fill:#7a3c00;}.cls-16{fill:#22a500;}.cls-17{fill:#1a8000;}</style></defs><title>Asset 1</title><g id="Layer_2" data-name="Layer 2"><g id="Layer_1-2" data-name="Layer 1"><path class="cls-1" d="M301.78,276.89,0,451.12,393.76,678.46,695.54,504.23Z"/><path class="cls-2" d="M114.91,401,31.7,449l154.57,89.25,83.21-48.05Z"/><path class="cls-3" d="M161.64,91.7,464.89,266.78V591.43L161.64,416.35Z"/><path class="cls-4" d="M161.64,91.7,464.89,266.78v32.59L161.64,124.29Z"/><path class="cls-5" d="M161.64,144,464.89,319.11v23.48L161.64,167.51Z"/><path class="cls-5" d="M161.64,244.54,464.89,419.62V443.1L161.64,268Z"/><path class="cls-5" d="M161.64,345.75,464.89,520.84v23.48L161.64,369.23Z"/><path class="cls-5" d="M161.64,194.94,464.89,370v23.49L161.64,218.42Z"/><path class="cls-5" d="M161.64,295.45,464.89,470.53V494L161.64,318.93Z"/><path class="cls-6" d="M464.88,266.78l128.44-74.15V517.07L464.88,591.23V266.78Z"/><path class="cls-7" d="M464.88,266.78l128.44-74.15V225L464.88,299.16Z"/><path class="cls-5" d="M464.88,319.11l28.49-16.44V326l-28.49,16.45Z"/><path class="cls-5" d="M464.88,419.62l28.49-16.45v23.31l-28.49,16.45Z"/><path class="cls-5" d="M464.88,520.84l28.49-16.45V527.7l-28.49,16.45Z"/><path class="cls-5" d="M464.88,370l28.49-16.44v23.31l-28.49,16.45Z"/><path class="cls-5" d="M464.88,470.53l28.49-16.44V477.4l-28.49,16.45Z"/><path class="cls-5" d="M505.68,295.56l28.49-16.45v23.31l-28.49,16.45Z"/><path class="cls-5" d="M505.68,396.06l28.49-16.45v23.32l-28.49,16.44Z"/><path class="cls-5" d="M505.68,497.28l28.49-16.45v23.31l-28.49,16.45Z"/><path class="cls-5" d="M505.68,346.47,534.17,330v23.31l-28.49,16.45Z"/><path class="cls-5" d="M505.68,447l28.49-16.45v23.31l-28.49,16.45Z"/><path class="cls-5" d="M546.58,272.1l28.49-16.44V279l-28.49,16.45Z"/><path class="cls-5" d="M546.58,372.62l28.49-16.45v23.31l-28.49,16.45Z"/><path class="cls-5" d="M546.58,473.83l28.49-16.45v23.31l-28.49,16.45Z"/><path class="cls-5" d="M546.58,323l28.49-16.45v23.31l-28.49,16.45Z"/><path class="cls-5" d="M546.58,423.53l28.49-16.45V430.4l-28.49,16.44Z"/><path class="cls-8" d="M153.29,80.74,461.93,258.93v32.59L153.29,113.32Z"/><path class="cls-9" d="M461.93,259l139.83-80.73v32.59L461.93,291.55Z"/><path class="cls-10" d="M293.13,0,601.79,178.2,462,258.94,153.29,80.73,293.13,0Z"/><path class="cls-11" d="M293.13,0l306.2,176.78-137.4,79.33L155.73,79.33Z"/><path class="cls-12" d="M293.9,17.86,566.15,175,460,236.31,187.79,79.13,293.9,17.86Z"/><path class="cls-13" d="M293.13,30.47l261.72,151.1L460,236.31,198.32,85.2Z"/><path class="cls-3" d="M212.49,78.58l122.39,70.68V159L212.49,88.34Z"/><path class="cls-6" d="M334.89,149.27l57.48-33.18v9.75L334.89,159Z"/><path class="cls-10" d="M270,45.4l122.4,70.67-57.48,33.18L212.49,78.58Z"/><path class="cls-11" d="M270,45.4l121.67,70.24-56.75,32.77L213.22,78.16Z"/><path class="cls-6" d="M537.35,178.58,489.16,206.4v3.84l48.19-27.82v-3.84Z"/><path class="cls-3" d="M489.16,206.41l-22.62-13.06v3.84l22.62,13.06Z"/><path class="cls-10" d="M514.72,165.52l-48.18,27.82,22.62,13.06,48.19-27.81-22.63-13.07Z"/><path class="cls-11" d="M514.72,165.52l-47.9,27.65,22.34,12.9,47.9-27.65Z"/><path class="cls-14" d="M122.91,380.39l2.61,61.13h0A2.65,2.65,0,0,1,123.9,444a8.68,8.68,0,0,1-7.82,0,2.69,2.69,0,0,1-1.61-2.43h0l2.6-61.13a1.46,1.46,0,0,0,.86,1.19,4.55,4.55,0,0,0,4.13,0,1.44,1.44,0,0,0,.85-1.19Z"/><path class="cls-15" d="M124.4,415.4a3,3,0,0,0-1.27-.13c-1.47.22-2.19,1.73-3.87,1.39-.87-.18-1.58-.73-2.43-.94a7.57,7.57,0,0,0-1.25-.13l1.49-35.2a1.46,1.46,0,0,0,.85,1.2,4.58,4.58,0,0,0,4.14,0,1.46,1.46,0,0,0,.85-1.2l1.49,35Z"/><path class="cls-16" d="M120.18,355a11.3,11.3,0,0,0,1.79.49,22.59,22.59,0,0,0,2.31-.27,34.61,34.61,0,0,1,4.71-.81c2.77-.13,4.48,1.34,6,3.11,0-.15.19.26.31.37.31.25.62.51.94.74.86.62,1.82,1.11,2.65,1.78,1.55,1.26,1.48,2.72,2.37,4.32a12.6,12.6,0,0,0,3.05,3.13c.49.43,1.12.58,1.49,1.28.8,1.46.55,3,.67,4.58.08,1.16.87,2.11,1,3.27.18,1.43-.28,2.9.06,4.31a12.58,12.58,0,0,1,.64,2.06,7.88,7.88,0,0,1-.56,2.26c-.16.72-.08,1.46-.19,2.19a8.81,8.81,0,0,1-.72,2.23,4.47,4.47,0,0,1-.35.69c-.07.12-.18.48-.22.35a7.36,7.36,0,0,0-.78,2c-.11.72.17,1.44-.13,2.15s-1.27,1.31-1.74,2.08-.49,2-1.06,2.9-1.88,1.16-2.7,1.91c-1,1-1.54,2.3-2.63,3.21-1.9,1.59-4.19,1.76-6.42,2.67-.17.07-2.14.84-2,1.18a13.37,13.37,0,0,1-3.48,1.83c-.85.22-1.81-.28-2.69-.2-1.35.12-2.43,1.13-3.83.72-1.23-.35-2-1.6-3.3-1.78-1.47-.19-2.59,1.06-4.1.26-.79-.41-1.32-1.14-2.07-1.58s-1.54-.45-2.16-1c-1.18-1.06-1-2.08-2.75-2.36-2.58-.41-3.06-2-4.55-3.81a11.48,11.48,0,0,0-1.5-1.54c-.18-.15-.37-.28-.56-.42s-.27-.25-.2-.19c-1.48-1.43-3.47-2.76-4.24-4.75-.86-2.21.46-4.56.22-6.82-.15-1.41-.46-2.76-.71-4.12.28.07-.08-.57-.1-.86,0-.59-.12-1.17-.19-1.76-.21-1.78-.54-3.92.32-5.59,1-1.94,2.16-3.43,2.77-5.6.45-1.59.14-3.3,1.09-4.76s2.52-1.26,3.82-2.07c1-.6,1.22-1.86,2.13-2.53s2.22-.59,3.21-1a2.81,2.81,0,0,0,1.2-1.19c-.07-.23.53-.64.65-.75a15.34,15.34,0,0,1,2.58-1.88,10,10,0,0,1,7.42-1.25,22.36,22.36,0,0,1,2.44.78"/><path class="cls-17" d="M93.21,390.94a8.74,8.74,0,0,0,1.21,2.21c1,1.25,2.46,1.88,3.46,3.06.81,1,1,2.35,2,3.1s2.23.66,3.19,1.31,1.32,1.58,2.23,2,1.6.09,2.41.24a8.26,8.26,0,0,1,2.2,1c-.15.05.25.18.38.26a7.07,7.07,0,0,0,.76.43,10.56,10.56,0,0,0,2.45.89c.81.16,1.64.1,2.44.31a8.25,8.25,0,0,0,2.49.72,14.44,14.44,0,0,0,2.32-.62c1.6-.33,3.21.25,4.82.11,1.3-.12,2.39-.95,3.69-1,1.77-.06,3.47.28,5.14-.54.79-.39,1-1.09,1.48-1.62,1.13-1.17,3.25-1.5,4.75-2.25a5.17,5.17,0,0,0,2.53-2.43,8,8,0,0,1-.7,2.08c-.63,1-1.88,1.16-2.7,1.92-1,.94-1.54,2.29-2.63,3.21-1.9,1.58-4.19,1.75-6.42,2.66-.17.07-1.31.81-2,1.18a16.75,16.75,0,0,1-3.48,1.83c-.85.22-1.81-.28-2.69-.2-1.35.12-2.43,1.13-3.83.73-1.23-.36-2-1.61-3.3-1.78-1.47-.2-2.59,1-4.1.25-.79-.41-1.32-1.13-2.07-1.57s-1.54-.46-2.16-1c-1.18-1.06-1-2.08-2.75-2.36-2.58-.4-3.07-2-4.55-3.8a11,11,0,0,0-1.5-1.55c-.18-.15-.37-.28-.56-.41s-.27-.26-.2-.2c-1.48-1.43-3.47-2.76-4.24-4.74a6.23,6.23,0,0,1-.12-3.4Z"/><path class="cls-14" d="M175.41,410.7,178,471.83h0a2.63,2.63,0,0,1-1.61,2.43,8.62,8.62,0,0,1-7.82,0,2.65,2.65,0,0,1-1.6-2.43h0l2.59-61.13a1.46,1.46,0,0,0,.86,1.2,4.55,4.55,0,0,0,4.13,0,1.44,1.44,0,0,0,.85-1.2Z"/><path class="cls-15" d="M176.91,445.72a2.71,2.71,0,0,0-1.27-.13c-1.47.22-2.2,1.73-3.87,1.39-.87-.18-1.58-.74-2.43-1a7.47,7.47,0,0,0-1.26-.12l1.5-35.2a1.46,1.46,0,0,0,.85,1.19,4.58,4.58,0,0,0,4.14,0,1.44,1.44,0,0,0,.85-1.19l1.49,35Z"/><path class="cls-16" d="M172.69,385.27a12.17,12.17,0,0,0,1.79.5,20.28,20.28,0,0,0,2.31-.28,35.94,35.94,0,0,1,4.71-.81c2.77-.13,4.48,1.34,6.05,3.11-.05-.15.19.27.31.37.3.25.62.51.94.74.86.63,1.82,1.11,2.65,1.79,1.55,1.26,1.48,2.71,2.37,4.31a12.64,12.64,0,0,0,3.05,3.14c.48.43,1.11.58,1.49,1.27.8,1.46.55,3,.66,4.58.09,1.16.88,2.11,1,3.28.18,1.42-.28,2.9.07,4.3a14.38,14.38,0,0,1,.64,2.06,7.8,7.8,0,0,1-.56,2.26c-.16.72-.08,1.46-.19,2.2a9.76,9.76,0,0,1-.72,2.22,5.58,5.58,0,0,1-.35.69c-.07.12-.18.48-.22.35a7.86,7.86,0,0,0-.79,2c-.1.72.18,1.45-.12,2.16s-1.27,1.31-1.74,2.07-.49,2-1.07,2.9-1.87,1.16-2.69,1.92c-1,.94-1.54,2.3-2.63,3.21-1.9,1.59-4.19,1.75-6.42,2.66-.17.07-2.15.85-2,1.19a13.42,13.42,0,0,1-3.47,1.82c-.85.22-1.81-.27-2.69-.2-1.35.12-2.42,1.13-3.83.73-1.23-.35-2-1.61-3.3-1.79-1.47-.19-2.59,1.06-4.11.26-.78-.41-1.31-1.13-2.07-1.57s-1.54-.46-2.15-1c-1.18-1.06-1-2.08-2.75-2.36-2.58-.4-3.06-2-4.55-3.8a10.53,10.53,0,0,0-1.51-1.55c-.17-.15-.36-.28-.54-.41s-.28-.26-.21-.19c-1.48-1.44-3.47-2.77-4.24-4.75-.87-2.21.46-4.56.22-6.83-.15-1.41-.47-2.76-.71-4.11.28.06-.08-.58-.1-.87,0-.59-.12-1.17-.19-1.76-.21-1.78-.55-3.92.32-5.58,1-1.95,2.16-3.43,2.77-5.61.45-1.59.14-3.3,1.1-4.75s2.5-1.26,3.81-2.08c.95-.59,1.22-1.86,2.13-2.52s2.22-.6,3.21-1a2.7,2.7,0,0,0,1.2-1.19c-.06-.23.52-.64.65-.75a15.06,15.06,0,0,1,2.57-1.87,10.05,10.05,0,0,1,7.43-1.25,20.34,20.34,0,0,1,2.44.77"/><path class="cls-17" d="M145.71,421.25a8.75,8.75,0,0,0,1.22,2.21c1,1.26,2.45,1.88,3.46,3.07.81,1,1,2.35,2,3.09s2.23.67,3.19,1.31,1.32,1.59,2.23,2,1.6.09,2.4.24a8.33,8.33,0,0,1,2.21,1c-.14,0,.25.18.38.26s.5.29.75.42a10.35,10.35,0,0,0,2.46.89c.81.17,1.64.1,2.44.32a8.52,8.52,0,0,0,2.49.71,14.17,14.17,0,0,0,2.32-.62c1.6-.33,3.21.25,4.81.11,1.31-.11,2.4-.95,3.7-1,1.77-.07,3.47.28,5.14-.55.79-.39,1-1.09,1.49-1.61,1.11-1.18,3.24-1.51,4.74-2.26a5.23,5.23,0,0,0,2.54-2.43,7.89,7.89,0,0,1-.72,2.08c-.63,1-1.87,1.17-2.69,1.92-1,.95-1.54,2.3-2.63,3.21-1.9,1.59-4.19,1.76-6.42,2.66-.17.07-1.31.82-2,1.19a16.4,16.4,0,0,1-3.47,1.82c-.85.23-1.81-.27-2.69-.19-1.35.11-2.42,1.13-3.83.72-1.23-.35-2-1.61-3.3-1.78-1.47-.2-2.59,1-4.11.26-.78-.41-1.31-1.14-2.07-1.58s-1.54-.45-2.15-1c-1.18-1.06-1-2.08-2.75-2.36-2.58-.4-3.06-2-4.55-3.8a10.53,10.53,0,0,0-1.51-1.55c-.17-.14-.36-.28-.54-.41a1.71,1.71,0,0,1-.21-.19c-1.48-1.43-3.47-2.77-4.24-4.75a6.33,6.33,0,0,1-.13-3.4Z"/><path class="cls-14" d="M227.21,440.61l2.6,61.12h0a2.65,2.65,0,0,1-1.61,2.43,8.62,8.62,0,0,1-7.82,0,2.62,2.62,0,0,1-1.6-2.43h0l2.59-61.12a1.44,1.44,0,0,0,.85,1.19,4.58,4.58,0,0,0,4.14,0,1.46,1.46,0,0,0,.86-1.19Z"/><path class="cls-15" d="M228.7,475.61a2.77,2.77,0,0,0-1.28-.13c-1.47.22-2.2,1.73-3.87,1.38-.87-.17-1.58-.72-2.43-.94a7.57,7.57,0,0,0-1.26-.12l1.5-35.2a1.44,1.44,0,0,0,.85,1.19,4.55,4.55,0,0,0,4.13,0,1.44,1.44,0,0,0,.86-1.19Z"/><path class="cls-16" d="M224.46,415.17a10.47,10.47,0,0,0,1.8.5,20.28,20.28,0,0,0,2.31-.28,35.94,35.94,0,0,1,4.71-.81c2.77-.13,4.48,1.34,6.05,3.11-.05-.15.19.27.31.37.3.26.62.51.94.74.86.63,1.82,1.12,2.65,1.79,1.55,1.26,1.48,2.72,2.37,4.31a12.78,12.78,0,0,0,3,3.14c.49.43,1.13.58,1.5,1.27.79,1.47.55,3,.67,4.58.08,1.16.87,2.12,1,3.27.19,1.44-.28,2.9.07,4.32a12.58,12.58,0,0,1,.64,2.06,7.82,7.82,0,0,1-.56,2.25c-.16.73-.08,1.47-.19,2.2a9.29,9.29,0,0,1-.72,2.22,5.58,5.58,0,0,1-.35.69c-.07.12-.18.48-.22.35a7.86,7.86,0,0,0-.79,2c-.1.73.19,1.45-.13,2.16s-1.26,1.31-1.73,2.07-.49,2-1.06,2.9-1.88,1.17-2.7,1.92c-1,.94-1.54,2.3-2.63,3.21-1.9,1.59-4.19,1.75-6.42,2.66-.17.07-2.15.85-2,1.19a13.89,13.89,0,0,1-3.49,1.83c-.84.21-1.8-.28-2.68-.21-1.35.12-2.43,1.14-3.84.73-1.23-.35-2-1.6-3.29-1.78-1.47-.2-2.59,1.05-4.11.25-.78-.41-1.31-1.13-2.07-1.57s-1.54-.45-2.15-1c-1.18-1.05-1-2.08-2.75-2.36-2.58-.4-3.06-2-4.55-3.8a11,11,0,0,0-1.5-1.55c-.18-.15-.37-.28-.56-.41s-.27-.26-.21-.19c-1.47-1.44-3.46-2.77-4.23-4.75-.86-2.21.46-4.56.22-6.83-.15-1.4-.46-2.75-.72-4.11.29.06-.07-.58-.09-.87,0-.58-.12-1.17-.19-1.75-.21-1.78-.55-3.93.32-5.59,1-1.95,2.16-3.43,2.77-5.6.45-1.6.14-3.31,1.09-4.76s2.52-1.26,3.81-2.07c1-.6,1.23-1.87,2.14-2.53s2.22-.6,3.21-1a2.83,2.83,0,0,0,1.2-1.2c-.07-.23.52-.64.65-.75a14.89,14.89,0,0,1,2.58-1.87A10,10,0,0,1,222,414.4a20.92,20.92,0,0,1,2.44.77"/><path class="cls-17" d="M197.5,451.15a8.23,8.23,0,0,0,1.21,2.2c1,1.26,2.45,1.88,3.46,3.07.81.95,1,2.35,2,3.09s2.23.67,3.19,1.31,1.32,1.59,2.24,2,1.59.09,2.4.24a8.72,8.72,0,0,1,2.2,1c-.15.06.25.19.38.27a5.52,5.52,0,0,0,.75.42,10.38,10.38,0,0,0,2.46.9c.81.16,1.64.09,2.44.31a8.86,8.86,0,0,0,2.49.72,14.73,14.73,0,0,0,2.32-.62c1.59-.34,3.21.24,4.81.1,1.3-.11,2.4-.95,3.7-1,1.77-.07,3.47.28,5.13-.54.8-.4,1-1.09,1.49-1.62,1.12-1.18,3.25-1.5,4.75-2.26a5.17,5.17,0,0,0,2.53-2.43,7.85,7.85,0,0,1-.7,2.08c-.64,1-1.88,1.17-2.7,1.92-1,.95-1.54,2.3-2.63,3.21-1.9,1.59-4.19,1.75-6.42,2.67-.18.06-1.31.8-2,1.18a16.59,16.59,0,0,1-3.49,1.83c-.84.22-1.8-.28-2.68-.2-1.35.11-2.43,1.13-3.84.72-1.23-.35-2-1.6-3.29-1.78-1.47-.2-2.59,1.05-4.11.26-.78-.41-1.31-1.14-2.07-1.58s-1.54-.45-2.16-1c-1.17-1.05-1-2.07-2.74-2.35-2.58-.41-3.06-2-4.55-3.81a11.5,11.5,0,0,0-1.5-1.54c-.18-.15-.37-.28-.56-.42s-.27-.26-.21-.19c-1.47-1.43-3.46-2.77-4.23-4.75a6.11,6.11,0,0,1-.12-3.39Z"/></g></g></svg>