<svg xmlns="http://www.w3.org/2000/svg" viewBox="0 0 826.18 733.26"><defs><style>.cls-1{fill:#8a7b74;}.cls-2{fill:#fff;}.cls-3{fill:#9393ff;}.cls-4{fill:#2e2eb2;}.cls-5{fill:#77f;}.cls-6{fill:#3c3cff;}.cls-7{fill:#5757ff;}.cls-8{fill:#7c7cff;}.cls-9{fill:#afafff;}.cls-10{fill:#d3d3ff;}.cls-11{fill:#9191ff;}.cls-12{fill:#222284;}.cls-13{fill:#c2c2ff;}.cls-14{fill:#ebebfd;}.cls-15{fill:#dedefc;}.cls-16{fill:#f3f3fe;}.cls-17{fill:#a25000;}.cls-18{fill:#7a3c00;}.cls-19{fill:#22a500;}.cls-20{fill:#1a8000;}</style></defs><title>Asset 3</title><g id="Layer_2" data-name="Layer 2"><g id="Layer_1-2" data-name="Layer 1"><path class="cls-1" d="M392.56,256.26,0,482.91,433.62,733.26,826.18,506.61,392.56,256.26Z"/><path class="cls-2" d="M480.47,706.21,371.26,643.16l-11.32,6.53,109.22,63Z"/><path class="cls-2" d="M530.24,677.47,421,614.42,409.72,621l109.21,63,11.31-6.53Z"/><path class="cls-2" d="M583.28,646.85,474.07,583.79l-11.31,6.54,109.21,63Z"/><path class="cls-3" d="M187.79,244.26,82.87,183.67V482.74l104.92,60.59Z"/><path class="cls-4" d="M110.89,233l-13.34-7.7v24.53l13.34,7.71Z"/><path class="cls-4" d="M110.89,314.45l-13.34-7.7v24.53l13.34,7.7Z"/><path class="cls-4" d="M110.89,273.74,97.55,266v24.53l13.34,7.71Z"/><path class="cls-4" d="M110.89,355.15l-13.34-7.7V372l13.34,7.7Z"/><path class="cls-4" d="M152.41,257l-13.34-7.7v24.53l13.34,7.71Z"/><path class="cls-4" d="M152.41,338.42l-13.34-7.7v24.54l13.34,7.7Z"/><path class="cls-4" d="M152.41,297.71,139.07,290v24.54l13.34,7.7Z"/><path class="cls-4" d="M152.41,379.12l-13.34-7.7V396l13.34,7.7Z"/><path class="cls-4" d="M132,245.19l-13.34-7.7V262l13.34,7.7Z"/><path class="cls-4" d="M132,326.61l-13.34-7.71v24.54l13.34,7.7Z"/><path class="cls-4" d="M132,285.9l-13.34-7.7v24.54l13.34,7.7Z"/><path class="cls-4" d="M132,367.32l-13.34-7.71v24.54l13.34,7.7Z"/><path class="cls-4" d="M173.47,269.17l-13.33-7.71V286l13.33,7.7Z"/><path class="cls-4" d="M173.47,350.58l-13.33-7.71v24.54l13.33,7.7Z"/><path class="cls-4" d="M173.47,309.88l-13.33-7.71v24.54l13.33,7.7Z"/><path class="cls-4" d="M173.47,391.29l-13.33-7.71v24.54l13.33,7.7Z"/><path class="cls-3" d="M606.41,302.33,346.82,152.42V451.49L606.41,601.4Z"/><path class="cls-5" d="M455.66,476.69,346.82,413.84v37.65l108.84,62.85Z"/><path class="cls-3" d="M448.61,459.06,436.9,452.3v64.62l11.71,6.76Z"/><path class="cls-3" d="M386.5,494.92l-11.71-6.76v64.62l11.71,6.76Z"/><path class="cls-6" d="M448.61,459.06l11.53-6.65v64.47l-11.53,6.66Z"/><path class="cls-6" d="M386.5,494.92,398,488.26v64.48L386.5,559.4Z"/><path class="cls-7" d="M187.79,244.26l159-91.84V451.49l-159,91.84Z"/><path class="cls-3" d="M284.52,436.05l-11.71-6.76v64.62l11.71,6.76Z"/><path class="cls-8" d="M448.61,459.06,436.9,452.3v25.55l11.71,6.76Z"/><path class="cls-8" d="M386.5,494.92l-11.71-6.76v25.55l11.71,6.76Z"/><path class="cls-8" d="M284.52,436.05l-11.71-6.76v25.55l11.71,6.76Z"/><path class="cls-9" d="M82.87,183.67,398.75,1.26,503.67,61.85,187.79,244.26,82.87,183.67Z"/><path class="cls-9" d="M241.9,91.83,400.92,0,765.44,210.5l-159,91.84Z"/><path class="cls-10" d="M664.82,182.45l-5,7.46c-4.33-7.33-11.53-14.22-21.61-20.1-35.48-20.7-93.16-20.95-128.82-.57-9.87,5.64-17,12.28-21.44,19.36l-5.29-6.95,0,6.08,0,0c-.41,13.71,8.4,27.53,26.48,38.08,35.48,20.7,93.16,21,128.82.58,17.84-10.19,26.79-23.61,26.85-37.08l0-6.84Z"/><path class="cls-11" d="M638,219.53c-35.66,20.38-93.34,20.13-128.82-.57s-35.34-54,.33-74.38,93.34-20.12,128.82.58S673.64,199.15,638,219.53Z"/><path class="cls-10" d="M638,216.06c-35.66,20.38-93.34,20.12-128.82-.58-17-9.9-25.78-22.69-26.46-35.57-.86,14,7.93,28.25,26.44,39,35.48,20.7,93.16,21,128.82.58,18.6-10.63,27.52-24.77,26.79-38.8-.8,12.87-9.71,25.58-26.77,35.33Z"/><path class="cls-12" d="M573.32,138.68c-19.25,0-38.46,4.18-53.15,12.58-14.23,8.12-22.09,18.94-22.15,30.45s7.72,22.39,21.88,30.65c29.53,17.23,77.69,17.44,107.38.48,14.23-8.13,22.1-19,22.15-30.45s-7.72-22.39-21.87-30.65C612.64,143,593,138.68,573.32,138.68Zm.8,88.26c-19.92,0-39.87-4.42-55-13.24-14.66-8.56-22.69-19.92-22.64-32s8.2-23.38,22.93-31.79c30.1-17.2,79-17,108.92.49C643,159,651,170.31,651,182.4s-8.19,23.37-22.93,31.78S593.65,226.94,574.12,226.94Z"/><path class="cls-4" d="M627.67,213.52c-29.95,17.11-78.37,16.88-108.16-.49s-29.66-45.33.28-62.44,78.36-16.89,108.15.48S657.6,196.41,627.67,213.52Z"/><path class="cls-9" d="M575.56,191.55l-15.52-9-18.63,10.76-19-11,49-28.32,19,11-16.63,9.6,15.52,9L605.9,174,625,185,576,213.3l-19-11,18.63-10.76Z"/><path class="cls-12" d="M519.78,154.25c29.93-17.11,78.35-16.89,108.14.48,14.1,8.22,21.48,18.8,22.2,29.49.9-11.9-6.48-24-22.18-33.15-29.79-17.37-78.21-17.59-108.15-.48-15.78,9-23.27,21-22.47,32.95C498.13,172.86,505.61,162.34,519.78,154.25Z"/><path class="cls-6" d="M284.52,436.05l11.53-6.66v64.48l-11.53,6.66Z"/><path class="cls-7" d="M606.41,302.33l159-91.83V509.56l-159,91.84Z"/><path class="cls-3" d="M379.86,497.48,244.4,419.25v13.46l135.46,78.23Z"/><path class="cls-7" d="M379.86,497.49,482.6,438.15V452L379.86,511.33Z"/><path class="cls-9" d="M244.07,419.06l102.75-59.34,135.79,78.42L379.86,497.48,244.07,419.06Z"/><path class="cls-4" d="M397.65,216.8l-13.34-7.7v24.53l13.34,7.7Z"/><path class="cls-4" d="M397.65,311.88l-13.34-7.7v24.54l13.34,7.7Z"/><path class="cls-4" d="M397.65,257.51l-13.34-7.7v24.54L397.65,282Z"/><path class="cls-4" d="M397.65,352.58l-13.34-7.7v24.54l13.34,7.7Z"/><path class="cls-4" d="M439.17,240.78l-13.33-7.7v24.54l13.33,7.7Z"/><path class="cls-4" d="M439.17,335.85l-13.33-7.69v24.53l13.33,7.7Z"/><path class="cls-4" d="M439.17,281.48l-13.33-7.7v24.54l13.33,7.7Z"/><path class="cls-4" d="M439.17,376.57l-13.33-7.7V393.4l13.33,7.71Z"/><path class="cls-4" d="M418.71,229l-13.34-7.71V245.8l13.34,7.7Z"/><path class="cls-4" d="M418.71,324l-13.34-7.71v24.54l13.34,7.7Z"/><path class="cls-4" d="M418.71,269.67,405.37,262V286.5l13.34,7.7Z"/><path class="cls-4" d="M418.71,364.75l-13.34-7.7v24.53l13.34,7.7Z"/><path class="cls-4" d="M460.23,252.94l-13.33-7.71v24.54l13.33,7.7Z"/><path class="cls-4" d="M460.23,348l-13.33-7.7v24.54l13.33,7.7Z"/><path class="cls-4" d="M722.05,275.72l13.33-7.7v24.53l-13.33,7.7Z"/><path class="cls-4" d="M460.23,293.65,446.9,286v24.53l13.33,7.7Z"/><path class="cls-4" d="M460.23,388.72,446.9,381v24.54l13.33,7.7Z"/><path class="cls-4" d="M722.05,316.42l13.33-7.7v24.53L722.05,341Z"/><path class="cls-4" d="M506.61,279.72,493.28,272v24.54l13.33,7.7Z"/><path class="cls-4" d="M506.61,374.8l-13.33-7.7v24.53l13.33,7.7Z"/><path class="cls-4" d="M699.54,288.71l13.34-7.7v24.53l-13.34,7.7Z"/><path class="cls-4" d="M506.61,320.42l-13.33-7.71v24.54l13.33,7.7Z"/><path class="cls-4" d="M506.61,415.5l-13.33-7.7v24.53L506.61,440Z"/><path class="cls-4" d="M699.54,329.41l13.34-7.7v24.53L699.54,354Z"/><path class="cls-4" d="M548.14,303.69,534.8,296v24.53l13.34,7.7Z"/><path class="cls-4" d="M548.14,398.77l-13.34-7.7v24.54l13.34,7.7Z"/><path class="cls-4" d="M658,312.68l13.34-7.7v24.54L658,337.22Z"/><path class="cls-4" d="M229.15,261.57l13.33-7.71V278.4l-13.33,7.7Z"/><path class="cls-4" d="M229.15,340.06l13.33-7.7V356.9l-13.33,7.7Z"/><path class="cls-4" d="M293.81,224.23l13.34-7.71v24.54l-13.34,7.7Z"/><path class="cls-4" d="M293.81,302.73l13.34-7.7v24.53l-13.34,7.7Z"/><path class="cls-4" d="M548.14,344.4l-13.34-7.7v24.53l13.34,7.71Z"/><path class="cls-4" d="M548.14,439.47l-13.34-7.7V456.3L548.14,464Z"/><path class="cls-4" d="M658,353.39l13.34-7.7v24.53L658,377.93Z"/><path class="cls-4" d="M229.15,302.27l13.33-7.7V319.1l-13.33,7.7Z"/><path class="cls-4" d="M229.15,380.77l13.33-7.7V397.6l-13.33,7.7Z"/><path class="cls-4" d="M293.81,264.94l13.34-7.71v24.54l-13.34,7.7Z"/><path class="cls-4" d="M293.81,343.44l13.34-7.7v24.53L293.81,368Z"/><path class="cls-4" d="M527.68,291.87l-13.34-7.7V308.7l13.34,7.7Z"/><path class="cls-4" d="M527.68,387l-13.34-7.71v24.54l13.34,7.7Z"/><path class="cls-4" d="M678.49,300.88l13.33-7.71v24.54l-13.33,7.7Z"/><path class="cls-4" d="M527.68,332.58l-13.34-7.7v24.54l13.34,7.69Z"/><path class="cls-4" d="M527.68,427.66,514.34,420V444.5l13.34,7.7Z"/><path class="cls-4" d="M678.49,341.57l13.33-7.7v24.54l-13.33,7.7Z"/><path class="cls-4" d="M569.2,315.85l-13.34-7.7v24.54l13.34,7.7Z"/><path class="cls-4" d="M569.2,410.93l-13.34-7.7v24.53l13.34,7.7Z"/><path class="cls-4" d="M637,324.85l13.34-7.71v24.54L637,349.38Z"/><path class="cls-4" d="M208.09,273.72l13.33-7.7v24.53l-13.33,7.7Z"/><path class="cls-4" d="M208.09,352.22l13.33-7.7v24.53l-13.33,7.7Z"/><path class="cls-4" d="M272.75,236.39l13.34-7.7v24.53l-13.34,7.71Z"/><path class="cls-4" d="M272.75,314.89l13.34-7.7v24.53l-13.34,7.7Z"/><path class="cls-4" d="M569.2,356.55l-13.34-7.7v24.54l13.34,7.7Z"/><path class="cls-4" d="M569.2,451.63l-13.34-7.69v24.53l13.34,7.7Z"/><path class="cls-4" d="M637,365.54l13.34-7.69v24.53L637,390.08Z"/><path class="cls-4" d="M208.09,314.43l13.33-7.7v24.53L208.09,339Z"/><path class="cls-4" d="M208.09,392.93l13.33-7.7v24.54l-13.33,7.7Z"/><path class="cls-4" d="M272.75,277.09l13.34-7.7v24.54l-13.34,7.7Z"/><path class="cls-4" d="M272.75,355.59l13.34-7.7v24.54l-13.34,7.7Z"/><path class="cls-3" d="M451.27,129l-34.39,5.49v12.48l34.39,19.86Z"/><path class="cls-7" d="M451.27,129l52.13-30.1v37.83l-52.13,30.1Z"/><path class="cls-13" d="M416.88,134.43,469,104.33l34.39-5.48L451.27,129Z"/><path class="cls-4" d="M482.54,121.16l15-8.65v27.56l-15,8.66V121.16Z"/><path class="cls-4" d="M458.87,134.82l15-8.65v27.57l-15,8.65Z"/><path class="cls-14" d="M374.8,445l-79.75-46v22.65l79.75,46.06V445Z"/><path class="cls-15" d="M374.79,445l12.76-7.37v22.66l-12.76,7.37Z"/><path class="cls-16" d="M295.05,399l12.76-7.38,79.75,46.06L374.8,445Z"/><path class="cls-17" d="M51.33,424.53l2.61,61.13h0a2.67,2.67,0,0,1-1.61,2.43,8.68,8.68,0,0,1-7.82,0,2.67,2.67,0,0,1-1.61-2.43h0l2.6-61.13a1.45,1.45,0,0,0,.86,1.2,4.62,4.62,0,0,0,4.13,0A1.46,1.46,0,0,0,51.33,424.53Z"/><path class="cls-18" d="M52.82,459.54a2.85,2.85,0,0,0-1.27-.14c-1.47.22-2.2,1.74-3.87,1.39-.87-.18-1.58-.73-2.43-.94a6.64,6.64,0,0,0-1.26-.12l1.5-35.2a1.44,1.44,0,0,0,.86,1.19,4.55,4.55,0,0,0,4.13,0,1.44,1.44,0,0,0,.85-1.19Z"/><path class="cls-19" d="M48.6,399.1a12.52,12.52,0,0,0,1.79.5,20.28,20.28,0,0,0,2.31-.28,34.35,34.35,0,0,1,4.71-.81c2.77-.13,4.48,1.33,6.05,3.11-.05-.15.19.27.31.37.3.26.62.5.94.74.86.62,1.82,1.12,2.65,1.79,1.55,1.25,1.48,2.71,2.37,4.31a12.73,12.73,0,0,0,3,3.13c.49.43,1.13.58,1.5,1.28.8,1.46.55,3,.67,4.58.08,1.16.87,2.11,1,3.27.18,1.43-.28,2.9.07,4.31a13.63,13.63,0,0,1,.64,2.06,7.88,7.88,0,0,1-.56,2.26c-.16.72-.08,1.47-.19,2.19a9.53,9.53,0,0,1-.72,2.23,5.58,5.58,0,0,1-.35.69c-.07.12-.18.48-.22.35a7.86,7.86,0,0,0-.79,2c-.1.72.18,1.45-.12,2.15s-1.27,1.32-1.74,2.07-.49,2-1.07,2.91-1.87,1.17-2.69,1.92c-1,.94-1.54,2.29-2.63,3.21-1.9,1.58-4.19,1.75-6.42,2.66-.17.07-2.15.85-2,1.18a13.37,13.37,0,0,1-3.48,1.83c-.85.22-1.81-.27-2.69-.2-1.35.12-2.42,1.13-3.84.73-1.22-.36-2-1.61-3.29-1.78-1.47-.2-2.59,1.05-4.11.25-.78-.41-1.31-1.14-2.07-1.57s-1.54-.46-2.15-1c-1.18-1.06-1-2.08-2.75-2.36-2.58-.41-3.06-2-4.55-3.8a11.06,11.06,0,0,0-1.51-1.55,5.61,5.61,0,0,0-.55-.41,2,2,0,0,1-.2-.19c-1.48-1.44-3.47-2.77-4.24-4.75-.86-2.22.46-4.57.22-6.83-.15-1.41-.46-2.76-.71-4.11.28.06-.08-.58-.1-.87,0-.59-.12-1.17-.19-1.75-.21-1.79-.55-3.93.32-5.6,1-1.94,2.16-3.42,2.77-5.59.45-1.6.14-3.31,1.1-4.76s2.5-1.26,3.81-2.07c1-.6,1.22-1.87,2.13-2.53s2.22-.6,3.21-1a2.75,2.75,0,0,0,1.2-1.19c-.07-.23.52-.64.65-.75a15,15,0,0,1,2.58-1.88,10,10,0,0,1,7.42-1.24,20.92,20.92,0,0,1,2.44.77"/><path class="cls-20" d="M21.62,435.07a8.45,8.45,0,0,0,1.22,2.21c1,1.26,2.45,1.88,3.46,3.07.81.95,1,2.34,2,3.09s2.23.67,3.19,1.31,1.33,1.59,2.23,2,1.6.09,2.4.23a9,9,0,0,1,2.21,1c-.15,0,.25.18.38.27a6.86,6.86,0,0,0,.75.42,9.93,9.93,0,0,0,2.46.89c.81.16,1.64.1,2.44.31a8.88,8.88,0,0,0,2.49.73A15.94,15.94,0,0,0,49.2,450c1.59-.33,3.21.25,4.81.11,1.3-.11,2.4-.95,3.7-1,1.77-.06,3.47.28,5.14-.54.79-.39,1-1.09,1.48-1.61,1.12-1.18,3.25-1.51,4.75-2.27a5.13,5.13,0,0,0,2.54-2.42,7.89,7.89,0,0,1-.72,2.08c-.63,1-1.87,1.17-2.69,1.92-1,.94-1.54,2.3-2.63,3.21-1.9,1.59-4.19,1.75-6.42,2.66-.17.07-1.31.81-2,1.19a16.74,16.74,0,0,1-3.48,1.82c-.85.22-1.81-.27-2.69-.19-1.35.11-2.42,1.13-3.84.72-1.22-.35-2-1.61-3.29-1.78-1.47-.2-2.59,1.06-4.11.25-.78-.41-1.31-1.13-2.07-1.57s-1.54-.45-2.15-1c-1.18-1-1-2.08-2.75-2.36-2.58-.4-3.06-2-4.55-3.8a11.06,11.06,0,0,0-1.51-1.55,5.61,5.61,0,0,0-.55-.41c-.07-.05-.27-.26-.21-.19-1.47-1.44-3.46-2.77-4.23-4.75a6.33,6.33,0,0,1-.13-3.4Z"/></g></g></svg>