<svg xmlns="http://www.w3.org/2000/svg" viewBox="0 0 914.74 645.51"><defs><style>.cls-1{fill:#92a500;}.cls-2{fill:#9d9df1;}.cls-3{fill:#c3c3f7;}.cls-4{fill:#dbdbfa;}.cls-5{fill:#ec5544;}.cls-6{fill:#40849d;}.cls-7{fill:#b82312;}.cls-8{fill:#569fba;}.cls-9{fill:#3835a8;}.cls-10{fill:#211f63;}.cls-11{fill:#ffafaf;}.cls-12{fill:#a25000;}.cls-13{fill:#7a3c00;}.cls-14{fill:#22a500;}.cls-15{fill:#1a8000;}</style></defs><title>Asset 4</title><g id="Layer_2" data-name="Layer 2"><g id="Layer_1-2" data-name="Layer 1"><path class="cls-1" d="M463.89,117.39,0,385.22,450.85,645.51,914.74,377.69Z"/><path class="cls-2" d="M68,345.94v17.57l278.17,160.6V506.54L68,345.94Z"/><path class="cls-3" d="M346.2,506.54v17.58l351.55-203V303.57Z"/><path class="cls-3" d="M552.94,577.79v8.79l89.81-51.85v-8.79Z"/><path class="cls-2" d="M395.48,486.87v8.79l157.46,90.92v-8.79Z"/><path class="cls-4" d="M419.59,143,68,345.94,346.2,506.54l351.55-203Z"/><path class="cls-4" d="M485.29,435l-89.81,51.86,157.46,90.91,89.81-51.86Z"/><path class="cls-5" d="M234.35,266l-69-39.82V360.68l69,39.82Z"/><path class="cls-6" d="M344,329.28l-99.72-57.56V394.78L344,452.35Z"/><path class="cls-7" d="M234.35,266V400.5l9.93-5.73V260.25L234.35,266Z"/><path class="cls-8" d="M344,329.28V452.35L602.51,303.09V180Z"/><path class="cls-9" d="M344,329.28V452.35l9.77-5.64V323.65Z"/><path class="cls-10" d="M344,329.28V452.35l-9.77-5.64V323.65Z"/><path class="cls-10" d="M303.9,306.14V429.2l-9.76-5.64V300.5Z"/><path class="cls-10" d="M263,282.5V405.56l-9.76-5.64V276.86Z"/><path class="cls-9" d="M381.89,307.41V430.47l9.77-5.64V301.77Z"/><path class="cls-9" d="M456.52,264.32V387.38l9.77-5.64V258.68Z"/><path class="cls-9" d="M532.65,220.37V343.43l9.77-5.64V214.73Z"/><path class="cls-9" d="M418.91,286V409.09l9.77-5.64V280.39Z"/><path class="cls-9" d="M344,359.6v12.67L602.51,223V210.34Z"/><path class="cls-9" d="M344,439.67v12.68L602.51,303.09V290.42Z"/><path class="cls-10" d="M344,359.6v12.67L244.27,314.7V302L344,359.6Z"/><path class="cls-10" d="M344,439.67v12.68l-99.72-57.57V382.1L344,439.68Z"/><path class="cls-9" d="M493.54,243V366l9.77-5.64V237.31Z"/><path class="cls-9" d="M569.67,199V322.05l9.77-5.64V193.35Z"/><path class="cls-5" d="M350.8,261.86l-185.42-107v71.41l185.42,107Z"/><path class="cls-7" d="M350.8,261.86v71.41l268.13-154.8V107.06Z"/><path class="cls-11" d="M433.5,0,165.37,154.81,350.8,261.86l268.13-154.8Z"/><path class="cls-7" d="M433.37,9.48,181.78,154.73l169.15,97.65L602.51,107.13,433.37,9.48Z"/><path class="cls-5" d="M433.54,21.64,192.41,160.86l158.53,91.52L592.07,113.17,433.54,21.64Z"/><path class="cls-12" d="M602.86,319.21l5,116.43h0c.16,1.67-.87,3.36-3.06,4.63a16.42,16.42,0,0,1-14.89,0c-2.2-1.27-3.23-3-3.07-4.63h0l5-116.43a2.76,2.76,0,0,0,1.63,2.27,8.67,8.67,0,0,0,7.87,0,2.77,2.77,0,0,0,1.62-2.27Z"/><path class="cls-13" d="M605.71,385.89a5.37,5.37,0,0,0-2.43-.25c-2.79.42-4.18,3.3-7.38,2.64-1.64-.33-3-1.39-4.62-1.79a13.63,13.63,0,0,0-2.39-.23l2.85-67.06a2.74,2.74,0,0,0,1.63,2.27,8.67,8.67,0,0,0,7.87,0,2.74,2.74,0,0,0,1.63-2.27l2.84,66.69Z"/><path class="cls-14" d="M597.65,270.76a21.41,21.41,0,0,0,3.42.95,38.89,38.89,0,0,0,4.4-.53,67,67,0,0,1,9-1.54c5.28-.25,8.53,2.55,11.52,5.93-.09-.29.36.5.59.7.58.48,1.18,1,1.79,1.41,1.64,1.19,3.47,2.12,5,3.4,3,2.4,2.82,5.17,4.51,8.21,1.39,2.5,3.72,4.15,5.8,6,.93.82,2.14,1.1,2.86,2.43,1.51,2.78,1,5.71,1.26,8.72.17,2.21,1.66,4,1.94,6.24.35,2.72-.53,5.52.14,8.21.32,1.31,1.1,2.55,1.21,3.92s-.74,2.88-1.06,4.29-.16,2.79-.38,4.18a17.56,17.56,0,0,1-1.36,4.25,12.42,12.42,0,0,1-.67,1.31c-.13.23-.34.91-.43.67a14.86,14.86,0,0,0-1.49,3.82c-.19,1.38.34,2.76-.25,4.11-.68,1.58-2.4,2.5-3.3,3.95-1,1.68-.94,3.85-2,5.52-1.2,1.85-3.57,2.23-5.14,3.66-2,1.8-2.92,4.38-5,6.12-3.61,3-8,3.33-12.21,5.06-.34.14-4.1,1.62-3.79,2.26-2.14,1.33-4.26,2.87-6.63,3.48-1.61.42-3.44-.52-5.12-.38-2.56.22-4.61,2.16-7.3,1.38-2.34-.67-3.79-3.06-6.27-3.39-2.81-.37-4.94,2-7.83.49-1.48-.78-2.5-2.17-3.94-3s-2.93-.86-4.11-1.92c-2.24-2-1.83-4-5.23-4.5-4.91-.77-5.83-3.74-8.66-7.24a21.63,21.63,0,0,0-2.87-3c-.34-.28-.69-.53-1-.78-.15-.1-.53-.5-.4-.36-2.81-2.74-6.6-5.28-8.07-9.05-1.65-4.22.88-8.69.42-13-.29-2.67-.88-5.25-1.36-7.83.55.11-.14-1.1-.18-1.66-.08-1.11-.23-2.22-.37-3.34-.4-3.39-1-7.47.62-10.64,1.94-3.71,4.11-6.53,5.27-10.67.86-3,.27-6.29,2.09-9.07s4.78-2.4,7.25-3.94c1.83-1.14,2.34-3.55,4.08-4.81s4.22-1.15,6.1-1.86a5.33,5.33,0,0,0,2.29-2.27c-.12-.44,1-1.22,1.24-1.43a28.64,28.64,0,0,1,4.91-3.57A19.11,19.11,0,0,1,593,269.28a43.91,43.91,0,0,1,4.64,1.48"/><path class="cls-15" d="M546.27,339.3a16.39,16.39,0,0,0,2.31,4.2c1.85,2.39,4.68,3.58,6.61,5.85,1.53,1.81,1.84,4.47,3.85,5.89,1.83,1.29,4.25,1.27,6.08,2.5,1.58,1.06,2.52,3,4.26,3.85,1.48.72,3,.18,4.57.45a16.48,16.48,0,0,1,4.2,1.83c-.28.09.48.35.72.5a13.59,13.59,0,0,0,1.44.81,19.58,19.58,0,0,0,4.68,1.7c1.54.31,3.12.19,4.65.6s3.08,1.43,4.74,1.37,2.94-.88,4.42-1.19c3-.63,6.12.47,9.17.21,2.47-.22,4.56-1.81,7-1.9,3.36-.12,6.61.53,9.78-1,1.51-.75,1.88-2.08,2.83-3.08,2.13-2.25,6.19-2.87,9-4.31a9.92,9.92,0,0,0,4.83-4.61,14.79,14.79,0,0,1-1.36,3.95c-1.2,1.85-3.57,2.23-5.14,3.66-2,1.8-2.93,4.38-5,6.12-3.61,3-8,3.33-12.22,5.06-.33.14-2.5,1.55-3.78,2.26-1.74,1-4.26,2.87-6.63,3.48-1.61.42-3.45-.52-5.12-.38-2.56.23-4.61,2.16-7.3,1.38-2.34-.67-3.8-3.06-6.28-3.39-2.8-.37-4.93,2-7.82.49-1.49-.78-2.5-2.17-3.94-3s-2.93-.86-4.11-1.92c-2.24-2-1.83-4-5.23-4.5-4.91-.76-5.84-3.74-8.66-7.24a21.63,21.63,0,0,0-2.87-3c-.34-.28-.7-.53-1.06-.78-.14-.1-.52-.5-.4-.36-2.8-2.74-6.6-5.28-8.06-9.05A11.85,11.85,0,0,1,546.27,339.3Z"/><path class="cls-12" d="M394.52,441.09l5,116.43h0c.15,1.67-.87,3.36-3.07,4.64a16.54,16.54,0,0,1-14.89,0c-2.2-1.28-3.22-3-3.07-4.64h0l4.95-116.43a2.76,2.76,0,0,0,1.63,2.27,8.73,8.73,0,0,0,7.87,0,2.78,2.78,0,0,0,1.63-2.27Z"/><path class="cls-13" d="M397.36,507.78a5.54,5.54,0,0,0-2.43-.24c-2.79.41-4.18,3.29-7.38,2.64-1.65-.34-3-1.39-4.62-1.79a12.91,12.91,0,0,0-2.39-.24l2.84-67a2.78,2.78,0,0,0,1.63,2.27,8.75,8.75,0,0,0,7.88,0,2.77,2.77,0,0,0,1.62-2.27Z"/><path class="cls-14" d="M389.3,392.65a22.55,22.55,0,0,0,3.42,1,41,41,0,0,0,4.4-.54,67,67,0,0,1,9-1.54c5.29-.25,8.53,2.55,11.53,5.93-.1-.29.35.5.58.69.59.5,1.18,1,1.8,1.42,1.64,1.19,3.46,2.12,5,3.4,3,2.4,2.82,5.17,4.51,8.21,1.39,2.5,3.73,4.15,5.81,6,.93.81,2.13,1.1,2.85,2.43,1.51,2.78,1,5.71,1.26,8.72.17,2.21,1.66,4,1.95,6.24.34,2.72-.54,5.52.12,8.21.33,1.32,1.11,2.55,1.22,3.92s-.74,2.88-1.06,4.29-.16,2.8-.38,4.19A17.33,17.33,0,0,1,440,459.4a14.58,14.58,0,0,1-.66,1.31c-.14.23-.35.91-.43.67a14.17,14.17,0,0,0-1.49,3.82c-.2,1.39.34,2.77-.25,4.11-.69,1.58-2.41,2.5-3.31,3.95-1,1.68-.93,3.85-2,5.52-1.21,1.85-3.58,2.23-5.14,3.66-2,1.8-2.93,4.37-5,6.11-3.62,3-8,3.35-12.22,5.07-.34.14-4.1,1.62-3.79,2.26-2.14,1.32-4.25,2.87-6.62,3.48-1.61.42-3.45-.52-5.12-.37-2.56.22-4.62,2.15-7.31,1.38-2.33-.68-3.79-3.06-6.27-3.4-2.8-.37-4.94,2-7.82.49-1.49-.78-2.5-2.17-3.95-3s-2.93-.87-4.1-1.92c-2.25-2-1.84-4-5.24-4.5-4.91-.76-5.83-3.74-8.66-7.24a20.52,20.52,0,0,0-2.87-2.95c-.33-.28-.69-.53-1.05-.78a5.21,5.21,0,0,1-.4-.37c-2.8-2.73-6.6-5.27-8.07-9-1.64-4.22.88-8.69.42-13-.28-2.68-.88-5.25-1.35-7.83.54.12-.15-1.1-.19-1.66-.08-1.11-.23-2.22-.36-3.33-.4-3.4-1-7.49.62-10.66,1.93-3.7,4.1-6.52,5.26-10.66.86-3,.28-6.29,2.09-9.06s4.78-2.4,7.26-3.95c1.83-1.14,2.33-3.55,4.07-4.81s4.22-1.15,6.1-1.85a5.49,5.49,0,0,0,2.3-2.28c-.13-.44,1-1.22,1.23-1.43a29.66,29.66,0,0,1,4.91-3.58,19.16,19.16,0,0,1,14.15-2.37,40.85,40.85,0,0,1,4.63,1.47"/><path class="cls-15" d="M337.94,461.19a15.9,15.9,0,0,0,2.3,4.2c1.85,2.4,4.68,3.59,6.61,5.85,1.53,1.8,1.85,4.47,3.86,5.89,1.82,1.29,4.24,1.27,6.07,2.5,1.58,1.06,2.53,3,4.26,3.85,1.48.72,3,.18,4.57.46a16,16,0,0,1,4.2,1.82c-.28.09.48.35.73.51a13.37,13.37,0,0,0,1.43.8,19.58,19.58,0,0,0,4.68,1.7c1.54.31,3.12.19,4.65.6s3.08,1.43,4.74,1.37,2.94-.88,4.43-1.19c3-.62,6.1.47,9.16.21,2.48-.22,4.57-1.81,7-1.9,3.37-.12,6.61.53,9.78-1,1.51-.75,1.89-2.08,2.84-3.08,2.13-2.24,6.19-2.86,9-4.31a9.81,9.81,0,0,0,4.83-4.62,15.07,15.07,0,0,1-1.35,4c-1.21,1.85-3.58,2.23-5.15,3.66-2,1.8-2.93,4.38-5,6.11-3.61,3-8,3.35-12.22,5.07-.33.14-2.49,1.55-3.78,2.26-1.73,1-4.25,2.87-6.62,3.49-1.61.42-3.45-.53-5.12-.38-2.57.22-4.62,2.15-7.31,1.38-2.33-.68-3.79-3.06-6.28-3.39-2.79-.38-4.93,2-7.82.48-1.49-.78-2.5-2.17-3.94-3s-2.93-.86-4.11-1.92c-2.24-2-1.83-4-5.23-4.5-4.91-.76-5.84-3.74-8.66-7.24a21,21,0,0,0-2.87-2.94,13.09,13.09,0,0,0-1.05-.79c-.15-.1-.52-.49-.4-.36-2.81-2.74-6.6-5.28-8.07-9a11.94,11.94,0,0,1-.23-6.47Z"/></g></g></svg>