<svg xmlns="http://www.w3.org/2000/svg" viewBox="0 0 953.39 578.88"><defs><style>.cls-1{fill:#92a500;}.cls-2{fill:#8a7b74;}.cls-3{fill:#b39e7f;}.cls-4{fill:#bcbbe9;}.cls-5{fill:#5757ff;}.cls-6{fill:#9e4300;}.cls-7{fill:#e8e0cd;}.cls-8{fill:#863900;}.cls-9{fill:#a25000;}.cls-10{fill:#7a3c00;}.cls-11{fill:#22a500;}.cls-12{fill:#1a8000;}.cls-13{fill:#c85500;}</style></defs><title>Asset 6</title><g id="Layer_2" data-name="Layer 2"><g id="Layer_1-2" data-name="Layer 1"><path class="cls-1" d="M525.32,28.44,0,331.74,428.06,578.88l525.33-303.3Z"/><path class="cls-2" d="M525.32,28.44,147.93,246.33,576,493.47l377.4-217.89Z"/><path class="cls-2" d="M328.74,318.35l-176,101.59L266.5,485.6,442.46,384,328.74,318.35Z"/><path class="cls-3" d="M228.44,258.58V159.51l169.27-1.84L567,355V454Z"/><path class="cls-4" d="M412.28,299l-52.5-30.31v65.76l52.5,30.31Z"/><path class="cls-5" d="M382.6,221.82l-22.82-13.18V224l22.82,13.18Z"/><path class="cls-5" d="M382.6,247.87,359.78,234.7v15.35l22.82,13.17Z"/><path class="cls-5" d="M412.28,239l-22.82-13.18v15.35l22.82,13.18Z"/><path class="cls-5" d="M412.28,265l-22.82-13.18v15.35l22.82,13.17Z"/><path class="cls-6" d="M670.8,0,397.71,157.67,567,355,840.07,197.3Z"/><path class="cls-7" d="M840.07,296.37,567,454V355L840.07,197.3Z"/><path class="cls-5" d="M642.05,344l23.36-13.49v40.92l-23.36,13.49Z"/><path class="cls-5" d="M769.66,270.33,793,256.84v40.92l-23.36,13.49Z"/><path class="cls-5" d="M611.68,361.54,635,348.05V389l-23.36,13.48Z"/><path class="cls-5" d="M739.28,287.88l23.36-13.49v40.92L739.28,328.8Z"/><path class="cls-8" d="M670.8,0,397.71,157.67l-168.84,1.84L502,1.84Z"/><path class="cls-9" d="M508.86,394.91,513,491.17h0c.13,1.37-.71,2.77-2.53,3.82a13.56,13.56,0,0,1-12.31,0c-1.82-1.05-2.66-2.45-2.54-3.82h0l4.09-96.26a2.29,2.29,0,0,0,1.35,1.88,7.18,7.18,0,0,0,6.51,0A2.3,2.3,0,0,0,508.86,394.91Z"/><path class="cls-10" d="M511.21,450a4.48,4.48,0,0,0-2-.2c-2.31.35-3.46,2.73-6.1,2.18-1.37-.28-2.49-1.14-3.82-1.48a11,11,0,0,0-2-.19l2.35-55.43a2.29,2.29,0,0,0,1.35,1.87,7.18,7.18,0,0,0,6.51,0,2.3,2.3,0,0,0,1.34-1.87L511.21,450Z"/><path class="cls-11" d="M504.56,354.85a17.09,17.09,0,0,0,2.82.79,35.34,35.34,0,0,0,3.64-.44,53.63,53.63,0,0,1,7.41-1.27c4.37-.21,7.06,2.1,9.53,4.9-.08-.24.29.41.49.57.48.41,1,.8,1.48,1.17,1.36,1,2.86,1.75,4.17,2.81,2.45,2,2.34,4.28,3.73,6.79,1.15,2.07,3.08,3.43,4.8,4.94.77.68,1.76.92,2.36,2,1.25,2.3.86,4.72,1,7.21.14,1.83,1.38,3.33,1.6,5.16.29,2.25-.44,4.56.12,6.78a21.79,21.79,0,0,1,1,3.25c.09,1.22-.61,2.37-.88,3.55s-.13,2.31-.31,3.45a14.39,14.39,0,0,1-1.13,3.51,9.27,9.27,0,0,1-.55,1.09c-.11.18-.28.75-.35.55a11.72,11.72,0,0,0-1.23,3.16c-.17,1.14.28,2.28-.21,3.4-.57,1.3-2,2.06-2.73,3.26-.86,1.39-.77,3.18-1.68,4.56s-2.95,1.84-4.25,3c-1.61,1.49-2.42,3.62-4.13,5.06-3,2.49-6.6,2.76-10.11,4.19-.27.11-3.38,1.33-3.13,1.86a21.13,21.13,0,0,1-5.47,2.88c-1.34.34-2.85-.43-4.24-.31-2.12.18-3.81,1.78-6,1.14-1.94-.56-3.14-2.53-5.19-2.81-2.32-.31-4.08,1.66-6.47.41-1.23-.65-2.06-1.79-3.26-2.48s-2.42-.72-3.39-1.59c-1.86-1.67-1.52-3.28-4.33-3.72-4.06-.63-4.82-3.09-7.16-6a17.65,17.65,0,0,0-2.37-2.44c-.28-.23-.58-.44-.87-.65-.12-.08-.43-.41-.33-.3-2.32-2.26-5.46-4.36-6.67-7.48-1.36-3.49.72-7.18.35-10.75-.24-2.22-.73-4.35-1.13-6.48.45.1-.11-.91-.15-1.37-.07-.92-.19-1.84-.3-2.75-.33-2.81-.86-6.19.51-8.81,1.6-3.06,3.4-5.4,4.36-8.82.7-2.51.22-5.2,1.72-7.49s3.95-2,6-3.26c1.51-.94,1.93-2.94,3.37-4s3.49-.95,5-1.53a4.44,4.44,0,0,0,1.9-1.89c-.11-.36.82-1,1-1.18A24.46,24.46,0,0,1,489,355.6a15.85,15.85,0,0,1,11.69-2,36.45,36.45,0,0,1,3.84,1.22"/><path class="cls-12" d="M462.09,411.52A13.61,13.61,0,0,0,464,415c1.53,2,3.87,3,5.46,4.83,1.27,1.49,1.53,3.7,3.19,4.87s3.51,1.05,5,2.06c1.31.89,2.09,2.5,3.52,3.2,1.23.58,2.52.13,3.79.37a13.34,13.34,0,0,1,3.47,1.51c-.23.07.39.28.6.42.38.24.78.46,1.18.66a16.61,16.61,0,0,0,3.87,1.41c1.27.25,2.58.15,3.84.49s2.55,1.19,3.92,1.13,2.44-.73,3.66-1c2.5-.52,5.05.39,7.58.17,2-.18,3.77-1.5,5.82-1.57,2.78-.1,5.46.44,8.08-.85,1.25-.62,1.56-1.72,2.35-2.55,1.76-1.85,5.11-2.36,7.47-3.56a8,8,0,0,0,4-3.82,11.82,11.82,0,0,1-1.12,3.27c-1,1.53-2.95,1.84-4.25,3-1.62,1.49-2.42,3.62-4.13,5.06-3,2.5-6.6,2.76-10.11,4.19-.27.11-2.06,1.28-3.13,1.86-1.43.8-3.52,2.38-5.47,2.88-1.34.35-2.85-.43-4.24-.31-2.12.18-3.81,1.78-6,1.14-1.94-.56-3.14-2.53-5.19-2.8-2.32-.31-4.08,1.66-6.47.4-1.23-.65-2.07-1.79-3.26-2.48s-2.42-.72-3.39-1.59c-1.86-1.66-1.52-3.28-4.33-3.72-4.06-.63-4.82-3.09-7.16-6a17.65,17.65,0,0,0-2.37-2.44c-.28-.23-.58-.44-.87-.65-.12-.08-.43-.41-.33-.3-2.32-2.26-5.46-4.36-6.67-7.48a9.78,9.78,0,0,1-.19-5.34Z"/><path class="cls-9" d="M212.32,223.69l4.1,96.26h0c.13,1.37-.71,2.78-2.53,3.82a13.62,13.62,0,0,1-12.31,0c-1.82-1-2.66-2.45-2.53-3.82h0l4.08-96.26a2.31,2.31,0,0,0,1.35,1.88,7.24,7.24,0,0,0,6.51,0A2.29,2.29,0,0,0,212.32,223.69Z"/><path class="cls-10" d="M214.66,278.82a4.48,4.48,0,0,0-2-.2c-2.31.34-3.46,2.73-6.1,2.18-1.36-.28-2.48-1.14-3.82-1.48a11,11,0,0,0-2-.19l2.35-55.44a2.31,2.31,0,0,0,1.35,1.88,7.18,7.18,0,0,0,6.51,0,2.29,2.29,0,0,0,1.35-1.88l2.34,55.13Z"/><path class="cls-11" d="M208,183.64a18.45,18.45,0,0,0,2.82.79,32.77,32.77,0,0,0,3.64-.44,53.51,53.51,0,0,1,7.42-1.27c4.36-.21,7.05,2.1,9.52,4.9-.08-.24.3.41.49.57.48.41,1,.8,1.48,1.17,1.36,1,2.87,1.76,4.17,2.81,2.45,2,2.34,4.28,3.73,6.79,1.15,2.07,3.08,3.43,4.8,4.94.77.68,1.76.92,2.36,2,1.25,2.3.86,4.72,1,7.21.14,1.83,1.38,3.33,1.61,5.16.28,2.25-.44,4.56.11,6.78a20.67,20.67,0,0,1,1,3.25c.09,1.22-.61,2.37-.88,3.54s-.12,2.32-.31,3.46a14.37,14.37,0,0,1-1.12,3.51c-.17.37-.35.74-.55,1.09-.12.18-.29.75-.36.55a12.06,12.06,0,0,0-1.23,3.16c-.17,1.14.28,2.28-.2,3.4-.57,1.3-2,2.06-2.74,3.26-.86,1.39-.77,3.18-1.67,4.56s-3,1.85-4.25,3c-1.62,1.49-2.42,3.62-4.14,5.05-3,2.5-6.6,2.77-10.11,4.19-.27.12-3.38,1.34-3.12,1.87a21.19,21.19,0,0,1-5.48,2.88c-1.33.34-2.85-.43-4.24-.31-2.11.18-3.81,1.78-6,1.14-1.94-.56-3.14-2.53-5.19-2.81-2.32-.31-4.08,1.66-6.47.41-1.23-.65-2.06-1.8-3.26-2.48s-2.42-.72-3.39-1.59c-1.85-1.67-1.52-3.28-4.33-3.72-4.06-.64-4.82-3.09-7.16-6a17.09,17.09,0,0,0-2.37-2.44c-.28-.23-.57-.44-.87-.65-.12-.08-.43-.41-.33-.3-2.32-2.26-5.46-4.36-6.67-7.48-1.36-3.49.73-7.19.35-10.75-.24-2.22-.73-4.34-1.12-6.48.44.1-.12-.91-.16-1.37-.06-.92-.19-1.83-.3-2.75-.33-2.82-.85-6.19.51-8.81,1.6-3.06,3.4-5.4,4.36-8.82.71-2.51.22-5.2,1.72-7.49s4-2,6-3.26c1.52-.94,1.93-2.94,3.37-4s3.49-.95,5-1.53a4.44,4.44,0,0,0,1.9-1.89c-.1-.35.83-1,1-1.18a24.46,24.46,0,0,1,4.06-3,15.8,15.8,0,0,1,11.69-2,36.45,36.45,0,0,1,3.84,1.22"/><path class="cls-12" d="M165.54,240.3a13.28,13.28,0,0,0,1.9,3.47c1.53,2,3.87,3,5.46,4.84,1.27,1.49,1.53,3.7,3.2,4.87,1.5,1.07,3.5,1.05,5,2.07,1.31.88,2.09,2.49,3.53,3.19,1.22.59,2.51.13,3.78.37a13.34,13.34,0,0,1,3.47,1.51c-.23.07.39.28.6.42a12.47,12.47,0,0,0,1.19.66,16.54,16.54,0,0,0,3.86,1.41c1.27.25,2.58.15,3.84.49s2.55,1.19,3.93,1.13,2.43-.73,3.65-1c2.51-.52,5,.39,7.58.17,2.05-.18,3.77-1.49,5.82-1.57,2.78-.1,5.47.44,8.09-.85,1.24-.62,1.55-1.72,2.34-2.55,1.76-1.85,5.12-2.37,7.47-3.56a8.07,8.07,0,0,0,4-3.81,12,12,0,0,1-1.11,3.27c-1,1.52-3,1.84-4.25,3-1.62,1.49-2.42,3.62-4.14,5.06-3,2.49-6.6,2.76-10.11,4.19-.27.11-2.06,1.28-3.12,1.86-1.44.8-3.53,2.38-5.48,2.88-1.33.35-2.85-.43-4.24-.31-2.11.18-3.81,1.78-6,1.14-1.94-.56-3.14-2.53-5.19-2.8-2.32-.32-4.08,1.66-6.47.4-1.23-.65-2.06-1.79-3.26-2.48s-2.42-.72-3.39-1.59c-1.85-1.67-1.52-3.27-4.33-3.72-4.06-.63-4.82-3.09-7.16-6a17.09,17.09,0,0,0-2.37-2.44c-.28-.23-.57-.44-.87-.65-.12-.08-.43-.41-.33-.3-2.32-2.26-5.46-4.36-6.67-7.48a9.82,9.82,0,0,1-.19-5.35Z"/><path class="cls-7" d="M755.8,203.1V123.65l-67-.73-67,78.05v79.45Z"/><path class="cls-5" d="M700.21,159.78l20.54-11.86v13.81l-20.54,11.86Z"/><path class="cls-5" d="M700.21,183.23l20.54-11.86v13.81L700.21,197Z"/><path class="cls-5" d="M673.5,175.2,694,163.34v13.81L673.5,189Z"/><path class="cls-5" d="M673.5,198.65,694,186.79v13.82L673.5,212.47Z"/><path class="cls-13" d="M580.8,60.54l108,62.38-67,78.05-108-62.37Z"/><path class="cls-3" d="M513.84,177.79l108,102.63V201l-108-62.37Z"/><path class="cls-8" d="M580.8,60.54l108,62.38,66.79.72-108-62.37Z"/></g></g></svg>