<svg xmlns="http://www.w3.org/2000/svg" viewBox="0 0 579.01 752.09"><defs><style>.cls-1{fill:#dbdbfa;}.cls-2{fill:#b4b4f5;}.cls-3{fill:#a25000;}.cls-4{fill:#7a3c00;}.cls-5{fill:#22a500;}.cls-6{fill:#1a8000;}.cls-7{fill:#5757ff;}.cls-8{fill:#7272ff;}.cls-9{fill:#9393ff;}.cls-10{fill:#3c3cff;}.cls-11{fill:#7c7cff;}.cls-12{fill:#afafff;}.cls-13{fill:#142162;}.cls-14{fill:#ffd500;}.cls-15{fill:#b4b4ff;}.cls-16{fill:#cdcdff;}.cls-17{fill:#1b2c83;}.cls-18{fill:#25358a;}.cls-19{fill:#8484ff;}.cls-20{fill:#8e8eff;}</style></defs><title>Asset 5</title><g id="Layer_2" data-name="Layer 2"><g id="Layer_1-2" data-name="Layer 1"><path class="cls-1" d="M423.09,417.8,0,662.07l155.92,90L579,507.81Z"/><path class="cls-2" d="M206.2,543,103.91,602.07l155.92,90L362.12,633Z"/><path class="cls-3" d="M522.45,451.32l2.6,61.13h0a2.64,2.64,0,0,1-1.61,2.43,8.66,8.66,0,0,1-7.81,0,2.67,2.67,0,0,1-1.61-2.43h0l2.6-61.13a1.44,1.44,0,0,0,.85,1.19,4.55,4.55,0,0,0,4.13,0,1.44,1.44,0,0,0,.86-1.19Z"/><path class="cls-4" d="M524,486.34a2.87,2.87,0,0,0-1.27-.14c-1.47.22-2.2,1.74-3.88,1.39-.86-.18-1.58-.73-2.43-.94a7.46,7.46,0,0,0-1.25-.13l1.49-35.2a1.47,1.47,0,0,0,.86,1.2,4.55,4.55,0,0,0,4.13,0,1.46,1.46,0,0,0,.85-1.2l1.5,35Z"/><path class="cls-5" d="M519.72,425.89a11.13,11.13,0,0,0,1.8.49,23.25,23.25,0,0,0,2.31-.27,34.09,34.09,0,0,1,4.71-.81c2.77-.13,4.47,1.34,6,3.11-.05-.15.19.26.31.37.31.25.62.5.94.74.86.62,1.83,1.11,2.65,1.79,1.55,1.25,1.48,2.71,2.37,4.31a12.77,12.77,0,0,0,3,3.13c.49.43,1.12.58,1.5,1.28.79,1.46.54,3,.66,4.58.09,1.16.87,2.11,1,3.27.18,1.43-.28,2.9.07,4.31a12.55,12.55,0,0,1,.63,2.06,7.42,7.42,0,0,1-.55,2.25c-.17.73-.09,1.47-.2,2.2a9.34,9.34,0,0,1-.71,2.23,5.64,5.64,0,0,1-.36.69c-.07.12-.17.47-.22.35a7.69,7.69,0,0,0-.78,2c-.11.72.18,1.44-.13,2.15s-1.26,1.31-1.74,2.07-.49,2-1.06,2.9-1.88,1.17-2.7,1.92c-1,1-1.54,2.3-2.63,3.21-1.9,1.59-4.19,1.76-6.41,2.67-.18.07-2.15.84-2,1.18a13.21,13.21,0,0,1-3.48,1.83c-.84.22-1.81-.28-2.69-.2-1.34.12-2.42,1.13-3.83.72-1.23-.35-2-1.6-3.3-1.78-1.46-.19-2.59,1.06-4.1.26-.78-.41-1.31-1.14-2.07-1.58s-1.54-.45-2.16-1c-1.17-1.06-1-2.09-2.75-2.36-2.57-.41-3.06-2-4.54-3.81a11,11,0,0,0-1.51-1.54c-.17-.15-.36-.28-.55-.42s-.27-.25-.21-.18c-1.47-1.44-3.47-2.77-4.24-4.76-.86-2.21.46-4.56.23-6.82-.16-1.41-.47-2.76-.72-4.12.29.07-.08-.57-.09-.87-.05-.58-.13-1.17-.2-1.75-.21-1.78-.54-3.93.32-5.59,1-1.94,2.16-3.43,2.77-5.6.46-1.59.15-3.3,1.1-4.76s2.51-1.26,3.81-2.07c1-.59,1.22-1.86,2.14-2.53s2.21-.59,3.2-1a2.83,2.83,0,0,0,1.21-1.19c-.07-.23.52-.64.65-.75a15.26,15.26,0,0,1,2.57-1.88,10,10,0,0,1,7.43-1.25,22.9,22.9,0,0,1,2.43.78"/><path class="cls-6" d="M492.75,461.87a8.74,8.74,0,0,0,1.21,2.21c1,1.25,2.46,1.88,3.47,3.06.8.95,1,2.35,2,3.1s2.22.66,3.18,1.31,1.33,1.58,2.24,2,1.6.08,2.4.23a8.26,8.26,0,0,1,2.2,1c-.14.05.26.18.39.26a6.09,6.09,0,0,0,.75.43,10.56,10.56,0,0,0,2.45.89c.81.16,1.64.1,2.44.32a8.58,8.58,0,0,0,2.5.71,14.73,14.73,0,0,0,2.32-.62c1.59-.33,3.21.25,4.81.11,1.3-.12,2.4-.95,3.69-1,1.77-.06,3.48.28,5.14-.54.79-.39,1-1.09,1.49-1.62,1.12-1.17,3.25-1.5,4.74-2.26a5.17,5.17,0,0,0,2.54-2.42,7.53,7.53,0,0,1-.71,2.08c-.63,1-1.88,1.16-2.7,1.92-1,.94-1.54,2.29-2.63,3.21-1.9,1.59-4.19,1.75-6.42,2.66-.17.07-1.31.81-2,1.18a16.05,16.05,0,0,1-3.48,1.83c-.84.22-1.81-.28-2.69-.2-1.35.12-2.42,1.13-3.83.73-1.23-.36-2-1.61-3.3-1.78-1.47-.2-2.59,1-4.1.25-.79-.41-1.31-1.13-2.07-1.57s-1.54-.46-2.16-1c-1.17-1.06-1-2.08-2.75-2.36-2.57-.4-3.06-2-4.55-3.8a10.46,10.46,0,0,0-1.5-1.55,5.61,5.61,0,0,0-.55-.41c-.08-.06-.28-.26-.21-.19-1.47-1.44-3.47-2.77-4.24-4.75a6.33,6.33,0,0,1-.12-3.4Z"/><path class="cls-3" d="M167.53,662.08l2.6,61.12h0a2.64,2.64,0,0,1-1.61,2.44,8.66,8.66,0,0,1-7.81,0,2.66,2.66,0,0,1-1.61-2.44h0l2.59-61.12a1.46,1.46,0,0,0,.86,1.19,4.55,4.55,0,0,0,4.13,0,1.46,1.46,0,0,0,.86-1.19Z"/><path class="cls-4" d="M169,697.08a2.86,2.86,0,0,0-1.27-.13c-1.47.22-2.2,1.73-3.88,1.39-.86-.18-1.58-.73-2.43-.94a7.46,7.46,0,0,0-1.25-.13l1.49-35.2a1.48,1.48,0,0,0,.86,1.2,4.62,4.62,0,0,0,4.13,0,1.47,1.47,0,0,0,.85-1.2l1.5,35Z"/><path class="cls-5" d="M164.8,636.64a10.22,10.22,0,0,0,1.8.5,20.4,20.4,0,0,0,2.3-.28,34.58,34.58,0,0,1,4.71-.8c2.77-.13,4.48,1.33,6,3.11,0-.15.19.26.31.37.3.25.62.5.94.74.86.62,1.82,1.11,2.65,1.78,1.55,1.26,1.49,2.72,2.37,4.31a12.64,12.64,0,0,0,3,3.14c.48.43,1.12.58,1.5,1.28.79,1.46.54,3,.66,4.57.09,1.17.87,2.12,1,3.28.18,1.43-.28,2.9.07,4.31a12.55,12.55,0,0,1,.63,2.06,7.72,7.72,0,0,1-.55,2.25c-.17.72-.08,1.47-.2,2.2a9.2,9.2,0,0,1-.71,2.23,6.47,6.47,0,0,1-.36.69c-.07.11-.17.48-.22.35a7.29,7.29,0,0,0-.78,2c-.11.73.18,1.45-.13,2.16s-1.26,1.31-1.74,2.07-.49,2-1.06,2.9-1.88,1.17-2.7,1.92c-1,1-1.54,2.3-2.63,3.21-1.9,1.59-4.19,1.76-6.42,2.66-.17.07-2.15.85-2,1.19a13.83,13.83,0,0,1-3.48,1.83c-.85.22-1.81-.28-2.69-.2-1.35.11-2.42,1.13-3.83.72-1.23-.35-2-1.61-3.3-1.78-1.47-.2-2.59,1.05-4.1.26-.79-.41-1.32-1.14-2.07-1.58s-1.55-.45-2.16-1c-1.17-1.05-1-2.08-2.75-2.36-2.57-.4-3.06-2-4.55-3.8a10.46,10.46,0,0,0-1.5-1.55c-.18-.14-.36-.28-.55-.41a1.71,1.71,0,0,1-.21-.19c-1.48-1.43-3.47-2.77-4.24-4.75-.86-2.21.46-4.56.22-6.83-.15-1.4-.46-2.76-.71-4.11.29.06-.08-.58-.09-.87-.05-.58-.13-1.16-.2-1.75-.21-1.78-.54-3.93.32-5.59,1-2,2.16-3.43,2.77-5.6.45-1.6.15-3.3,1.1-4.76s2.5-1.26,3.81-2.07c1-.6,1.22-1.86,2.14-2.53s2.21-.6,3.2-1a2.8,2.8,0,0,0,1.21-1.2c-.07-.22.52-.63.64-.75a16.3,16.3,0,0,1,2.58-1.87,10,10,0,0,1,7.42-1.25,22.32,22.32,0,0,1,2.44.77"/><path class="cls-6" d="M137.82,672.62a8.36,8.36,0,0,0,1.21,2.2c1,1.26,2.46,1.89,3.47,3.08.8.94,1,2.34,2,3.09s2.22.66,3.18,1.31,1.33,1.59,2.24,2,1.6.09,2.4.24a8.13,8.13,0,0,1,2.2,1c-.14,0,.26.18.39.27a6,6,0,0,0,.75.41,9.89,9.89,0,0,0,2.45.9c.81.16,1.64.1,2.44.31a8.93,8.93,0,0,0,2.5.72,14.73,14.73,0,0,0,2.32-.62c1.59-.33,3.21.24,4.81.11,1.3-.12,2.4-1,3.69-1,1.77-.06,3.48.28,5.14-.54.79-.39,1-1.1,1.49-1.62,1.12-1.18,3.25-1.5,4.74-2.26a5.09,5.09,0,0,0,2.54-2.42,7.46,7.46,0,0,1-.71,2.07c-.63,1-1.88,1.17-2.7,1.93-1,.94-1.54,2.3-2.63,3.21-1.9,1.58-4.19,1.75-6.42,2.66-.17.07-1.31.81-2,1.18a16.26,16.26,0,0,1-3.48,1.83c-.85.22-1.81-.27-2.69-.2-1.35.12-2.42,1.13-3.83.73-1.23-.36-2-1.61-3.3-1.78-1.47-.2-2.59,1.05-4.1.25-.79-.41-1.31-1.14-2.07-1.57s-1.54-.46-2.16-1c-1.18-1.06-1-2.09-2.75-2.36-2.57-.41-3.06-2-4.55-3.81a11,11,0,0,0-1.5-1.55c-.17-.14-.36-.27-.55-.4s-.28-.26-.21-.19c-1.47-1.44-3.47-2.77-4.24-4.75a6.33,6.33,0,0,1-.12-3.4Z"/><path class="cls-3" d="M64.32,602.49l2.61,61.13h0A2.61,2.61,0,0,1,65.31,666a8.6,8.6,0,0,1-7.81,0,2.63,2.63,0,0,1-1.61-2.42h0l2.59-61.13a1.46,1.46,0,0,0,.86,1.19,4.55,4.55,0,0,0,4.13,0,1.44,1.44,0,0,0,.85-1.19Z"/><path class="cls-4" d="M65.82,637.5a3,3,0,0,0-1.27-.13c-1.47.22-2.19,1.73-3.87,1.39-.87-.18-1.58-.73-2.43-.94a7.58,7.58,0,0,0-1.26-.13l1.5-35.2a1.43,1.43,0,0,0,.86,1.19,4.55,4.55,0,0,0,4.13,0,1.43,1.43,0,0,0,.85-1.19Z"/><path class="cls-5" d="M61.6,577.07a11.3,11.3,0,0,0,1.79.49,20.28,20.28,0,0,0,2.31-.28,34.58,34.58,0,0,1,4.71-.8c2.77-.14,4.48,1.33,6,3.11,0-.15.19.26.31.36.3.26.62.51.94.74.86.63,1.82,1.12,2.65,1.79,1.55,1.26,1.48,2.72,2.37,4.31a12.64,12.64,0,0,0,3,3.14c.48.43,1.12.58,1.49,1.27.8,1.47.55,3,.67,4.59.08,1.15.87,2.11,1,3.27.17,1.43-.29,2.9.06,4.31a13.63,13.63,0,0,1,.64,2.06,8.05,8.05,0,0,1-.55,2.25c-.17.73-.09,1.47-.2,2.2a9.6,9.6,0,0,1-.72,2.22,4.47,4.47,0,0,1-.35.69c-.07.13-.18.48-.22.35a7.61,7.61,0,0,0-.78,2c-.11.73.17,1.45-.13,2.16s-1.27,1.31-1.74,2.07-.49,2-1.07,2.9-1.87,1.17-2.69,1.92c-1,.94-1.54,2.3-2.63,3.21-1.9,1.59-4.19,1.75-6.42,2.66-.17.07-2.15.85-2,1.19a13.68,13.68,0,0,1-3.48,1.83c-.85.21-1.81-.28-2.69-.2-1.35.12-2.42,1.13-3.83.72-1.23-.35-2-1.6-3.3-1.78-1.47-.2-2.59,1.06-4.1.26-.79-.41-1.32-1.14-2.07-1.58s-1.55-.45-2.16-1c-1.18-1.06-1-2.09-2.75-2.37-2.58-.4-3.07-2-4.55-3.8a11,11,0,0,0-1.51-1.55c-.17-.14-.36-.28-.55-.41a2,2,0,0,1-.2-.19c-1.48-1.44-3.47-2.77-4.24-4.75-.86-2.21.46-4.56.22-6.83-.15-1.4-.46-2.75-.71-4.11.28.06-.08-.58-.1-.87,0-.58-.12-1.17-.19-1.75-.21-1.78-.55-3.93.32-5.59,1-1.95,2.16-3.43,2.77-5.6.45-1.6.14-3.3,1.09-4.76s2.51-1.26,3.82-2.07c1-.6,1.22-1.87,2.13-2.53s2.22-.6,3.21-1a2.76,2.76,0,0,0,1.2-1.19c-.07-.23.53-.64.65-.75a15.19,15.19,0,0,1,2.58-1.88,10,10,0,0,1,7.42-1.25,21,21,0,0,1,2.44.78"/><path class="cls-6" d="M34.63,613a8.52,8.52,0,0,0,1.21,2.2c1,1.26,2.46,1.88,3.46,3.07.81,1,1,2.35,2,3.09s2.23.67,3.19,1.32,1.32,1.58,2.23,2,1.6.08,2.41.23a8.41,8.41,0,0,1,2.2,1c-.14,0,.25.18.38.26a8,8,0,0,0,.75.43,10.81,10.81,0,0,0,2.46.89c.81.16,1.64.09,2.44.31a8.86,8.86,0,0,0,2.49.72,14.44,14.44,0,0,0,2.32-.62c1.6-.33,3.21.25,4.82.11,1.3-.12,2.39-.95,3.69-1,1.77-.07,3.47.28,5.14-.54.79-.39,1-1.09,1.48-1.62,1.12-1.17,3.25-1.5,4.75-2.26a5.11,5.11,0,0,0,2.53-2.42,7.57,7.57,0,0,1-.71,2.07c-.62,1-1.87,1.17-2.69,1.93-1,.94-1.54,2.29-2.63,3.2-1.9,1.59-4.19,1.76-6.42,2.67-.17.06-1.31.81-2,1.18a16.5,16.5,0,0,1-3.48,1.83c-.85.22-1.81-.28-2.69-.2-1.35.12-2.43,1.13-3.83.72-1.23-.35-2-1.6-3.3-1.78-1.47-.2-2.59,1.06-4.11.26-.78-.41-1.31-1.14-2.07-1.57s-1.54-.46-2.15-1c-1.18-1.06-1-2.08-2.75-2.36-2.58-.41-3.07-2-4.55-3.81a11,11,0,0,0-1.51-1.54,5.61,5.61,0,0,0-.55-.41c-.08-.06-.27-.26-.2-.2-1.48-1.43-3.47-2.76-4.24-4.74a6.24,6.24,0,0,1-.12-3.4Z"/><path class="cls-7" d="M319.45,296.21l187.16-108V549.6l-187.16,108Z"/><path class="cls-8" d="M319.45,296.21l187.16-108v16L319.45,312.17Z"/><path class="cls-9" d="M164.54,206.78l154.92,89.44V657.66L164.54,568.22Z"/><path class="cls-9" d="M269.24,614l-11.71-6.76v64.61l11.71,6.76Z"/><path class="cls-10" d="M269.24,614l11.53-6.66v64.47l-11.53,6.66Z"/><path class="cls-9" d="M167.26,555.1l-11.71-6.76V613l11.71,6.76Z"/><path class="cls-11" d="M269.24,614l-11.71-6.76v25.54l11.71,6.76Z"/><path class="cls-11" d="M167.26,555.1l-11.71-6.76v25.54l11.71,6.76Z"/><path class="cls-10" d="M167.26,555.11l11.53-6.66v64.47l-11.53,6.66Z"/><path class="cls-9" d="M262.6,616.53,127.14,538.31v13.46L262.6,630Z"/><path class="cls-7" d="M262.6,616.54l54.53-31.49v13.84l-54.53,31.5Z"/><path class="cls-12" d="M126.82,538.11l54.52-31.49L317.13,585l-54.52,31.49Z"/><path class="cls-13" d="M183.83,280.61l25.74,14.87v42.43l-25.74-14.86Z"/><path class="cls-13" d="M183.83,353.16,209.57,368v42.44L183.83,395.6Z"/><path class="cls-13" d="M183.83,425.48l25.74,14.87v42.44l-25.74-14.87Z"/><path class="cls-13" d="M228.77,306.56l25.75,14.87v42.44L228.77,349Z"/><path class="cls-13" d="M367.39,339.77l-25.75,14.87v15.81l25.75-14.86Z"/><path class="cls-13" d="M367.39,369.16,341.64,384v15.81L367.39,385Z"/><path class="cls-13" d="M367.39,396.56l-25.75,14.87v15.82l25.75-14.87V396.57Z"/><path class="cls-13" d="M367.39,425l-25.75,14.87v15.82l25.75-14.86Z"/><path class="cls-13" d="M367.39,454.64l-25.75,14.87v15.82l25.75-14.86Z"/><path class="cls-13" d="M403.42,319l-25.75,14.86v15.82l25.75-14.87Z"/><path class="cls-14" d="M403.42,348.36l-25.75,14.86V379l25.75-14.86Z"/><path class="cls-14" d="M403.42,375.76l-25.75,14.87v15.82l25.75-14.87Z"/><path class="cls-14" d="M403.42,404.15,377.67,419v15.82L403.42,420Z"/><path class="cls-13" d="M403.42,433.84l-25.75,14.87v15.82l25.75-14.87Z"/><path class="cls-13" d="M438.46,298.74l-25.75,14.87v15.82l25.75-14.87Z"/><path class="cls-13" d="M438.46,328.13,412.71,343v15.82L438.46,344Z"/><path class="cls-14" d="M438.46,355.53l-25.75,14.86v15.82l25.75-14.86Z"/><path class="cls-13" d="M438.46,383.93,412.71,398.8v15.81l25.75-14.86Z"/><path class="cls-13" d="M438.46,413.61l-25.75,14.86V444.3l25.75-14.87Z"/><path class="cls-14" d="M228.77,379.11,254.52,394v42.44l-25.75-14.87Z"/><path class="cls-13" d="M228.77,451.44l25.75,14.86v42.44l-25.75-14.87Z"/><path class="cls-15" d="M164.54,206.78l154.92,89.44v16L164.54,222.74Z"/><path class="cls-16" d="M351.69,98.72l154.92,89.44-187.16,108L164.54,206.77l187.15-108Z"/><path class="cls-17" d="M349.48,112.29,483.1,189.44l-161.43,93.2L188.05,205.49Z"/><path class="cls-8" d="M347.68,123.32l125,72.16-151,87.16-125-72.15,151-87.17Z"/><path class="cls-9" d="M324.16,120.92,209.57,54.76v156L324.16,276.9Z"/><path class="cls-15" d="M324.16,120.92,209.57,54.76v9.77l114.59,66.16Z"/><path class="cls-7" d="M419,66.15l-94.85,54.76v156L419,222.13Z"/><path class="cls-13" d="M407.2,111.36l-15.77,9.1v26l15.77-9.11Z"/><path class="cls-13" d="M407.2,155.78l-15.77,9.1v26l15.77-9.1Z"/><path class="cls-13" d="M379.68,127.25l-15.76,9.1v26l15.76-9.11Z"/><path class="cls-13" d="M294.81,147.58l15.77,9.1v9.69l-15.77-9.1v-9.69Z"/><path class="cls-13" d="M294.81,165.58l15.77,9.1v9.69l-15.77-9.11Z"/><path class="cls-13" d="M294.81,182.35l15.77,9.11v9.68L294.81,192v-9.69Z"/><path class="cls-13" d="M294.81,199.74l15.77,9.1v9.68l-15.77-9.1v-9.68Z"/><path class="cls-13" d="M294.81,217.92l15.77,9.1v9.68l-15.77-9.1Z"/><path class="cls-13" d="M272.75,134.84l15.76,9.1v9.69l-15.76-9.1Z"/><path class="cls-14" d="M272.75,152.84l15.76,9.1v9.69l-15.76-9.1v-9.69Z"/><path class="cls-14" d="M272.75,169.62l15.76,9.1v9.68l-15.76-9.1Z"/><path class="cls-14" d="M272.75,187l15.76,9.1v9.68l-15.76-9.1Z"/><path class="cls-13" d="M272.75,205.18l15.76,9.1V224l-15.76-9.1v-9.68Z"/><path class="cls-13" d="M251.3,122.46l15.77,9.1v9.68l-15.77-9.1Z"/><path class="cls-13" d="M251.3,140.45l15.77,9.1v9.69l-15.77-9.1v-9.69Z"/><path class="cls-14" d="M251.3,157.23l15.77,9.1V176l-15.77-9.1Z"/><path class="cls-13" d="M251.3,174.62l15.77,9.1v9.69l-15.77-9.1Z"/><path class="cls-13" d="M251.3,192.79l15.77,9.1v9.69l-15.77-9.1v-9.69Z"/><path class="cls-14" d="M379.68,171.67l-15.76,9.1v26l15.76-9.1Z"/><path class="cls-8" d="M419,66.15l-94.85,54.76v9.77L419,75.92Z"/><path class="cls-16" d="M304.42,0,209.57,54.76l114.58,66.16L419,66.16Z"/><path class="cls-18" d="M305.78,8.31,224,55.54l98.84,57.07,81.81-47.24Z"/><path class="cls-8" d="M306.88,15.07,230.36,59.24l92.44,53.37,76.52-44.18Z"/><path class="cls-19" d="M307.16,50.86,282.47,36.6v5.48l24.69,14.26V50.85Z"/><path class="cls-20" d="M331.85,36.61,307.16,50.86v5.48l24.69-14.25Z"/><path class="cls-16" d="M307.16,22.35,282.47,36.6l24.69,14.26L331.84,36.6Z"/></g></g></svg>