<svg xmlns="http://www.w3.org/2000/svg" viewBox="0 0 881.99 935.63"><defs><style>.cls-1{fill:#bebef6;}.cls-2{fill:#fff;}.cls-3{fill:#92a500;}.cls-4{fill:#d48900;}.cls-5{fill:#ff6969;}.cls-6{fill:#664200;}.cls-7{fill:#966100;}.cls-8{fill:#ffd4d4;}.cls-9{fill:#9e4300;}.cls-10{fill:#ff9797;}.cls-11{fill:#753100;}.cls-12{fill:#268081;}.cls-13{fill:#2fa0a2;}.cls-14{fill:#ffafaf;}.cls-15{fill:#ffa2a2;}.cls-16{fill:#a25000;}.cls-17{fill:#7a3c00;}.cls-18{fill:#22a500;}.cls-19{fill:#1a8000;}</style></defs><title>Asset 9</title><g id="Layer_2" data-name="Layer 2"><g id="Layer_1-2" data-name="Layer 1"><path class="cls-1" d="M414.58,426.41,0,665.77,467.41,935.63,882,696.27,414.58,426.41Z"/><path class="cls-2" d="M524.78,876.61,415.57,813.55l-11.31,6.53,109.21,63.06Z"/><path class="cls-2" d="M574.56,847.86,465.35,784.8,454,791.34l109.21,63,11.31-6.53Z"/><path class="cls-2" d="M627.6,817.25,518.38,754.19l-11.31,6.53,109.21,63.06Z"/><path class="cls-3" d="M471,698.93l-138.3,79.84L384.9,808.9l138.3-79.84L471,698.93Z"/><path class="cls-4" d="M439.93,0,110.28,190.32,327.46,315.71,657.11,125.39,439.93,0Z"/><path class="cls-5" d="M442.94,21.21,147,192.06,324.45,294.5,620.38,123.65,442.94,21.21Z"/><path class="cls-6" d="M442.94,21.21,147,192.06,324.45,294.5,620.38,123.65,442.94,21.21Z"/><path class="cls-7" d="M442.85,37.35,161,200.1l163.5,94.4L606.36,131.75Z"/><path class="cls-8" d="M657.11,125.39,327.46,315.71V769.45L657.11,579.13Z"/><path class="cls-9" d="M657.11,125.39,327.46,315.71v33.68L657.11,159.06Z"/><path class="cls-10" d="M110.28,190.32,327.46,315.71V769.45L110.28,644.06Z"/><path class="cls-11" d="M110.28,190.32,327.46,315.71v33.68L110.28,224Z"/><path class="cls-12" d="M126.76,328.85v-60.5L145.26,279v60.5Z"/><path class="cls-12" d="M126.76,420.21v-60.5l18.5,10.69v60.49Z"/><path class="cls-12" d="M126.76,507.91V447.42l18.5,10.68v60.49Z"/><path class="cls-12" d="M148.5,341.4V280.9L167,291.58v60.5Z"/><path class="cls-12" d="M148.5,432.76V372.27L167,383v60.49Z"/><path class="cls-12" d="M148.5,520.47V460L167,470.65v60.5Z"/><path class="cls-12" d="M170.24,353.93v-60.5l18.5,10.68v60.5Z"/><path class="cls-12" d="M144.39,563.12v-19.5l18.5,10.68v19.5Z"/><path class="cls-12" d="M254.58,349.09v-19.5l18.5,10.68v19.5Z"/><path class="cls-13" d="M433.86,361.87V328.43l-31.72,18.32v33.43Z"/><path class="cls-13" d="M433.86,435.59V402.15l-31.72,18.32V453.9Z"/><path class="cls-13" d="M433.86,516.54V483.1l-31.72,18.32v33.43Z"/><path class="cls-13" d="M433.86,618.25V584.82l-31.72,18.31v33.44Z"/><path class="cls-13" d="M556.5,291.06V257.62l-31.72,18.32v33.43Z"/><path class="cls-13" d="M630.38,248.41V215l-31.72,18.32v33.43Z"/><path class="cls-13" d="M556.5,364.78V331.34l-31.72,18.32v33.43Z"/><path class="cls-13" d="M630.38,322.13V288.69L598.66,307v33.43Z"/><path class="cls-13" d="M556.5,445.73V412.29l-31.72,18.32V464Z"/><path class="cls-13" d="M630.38,403.08V369.64L598.66,388v33.44Z"/><path class="cls-12" d="M254.58,441.16V421.67l18.5,10.68v19.5Z"/><path class="cls-12" d="M254.58,527v-19.5l18.5,10.68v19.5Z"/><path class="cls-12" d="M254.58,618.91v-19.5l18.5,10.68v19.5Z"/><path class="cls-12" d="M166.48,575.63V556.14L185,566.82v19.5Z"/><path class="cls-12" d="M276.67,362.2V342.7l18.5,10.68v19.5Z"/><path class="cls-13" d="M396,384.35V350.91l-31.72,18.32v33.43Z"/><path class="cls-13" d="M396,458.07V424.64L364.26,443v33.43Z"/><path class="cls-13" d="M396,539V505.59L364.26,523.9v33.43Z"/><path class="cls-13" d="M396,640.74V607.3l-31.72,18.32v33.43Z"/><path class="cls-13" d="M518.63,313.54V280.1l-31.72,18.32v33.43Z"/><path class="cls-13" d="M518.63,387.26V353.83l-31.72,18.31v33.43Z"/><path class="cls-13" d="M518.63,468.21V434.78l-31.72,18.31v33.43Z"/><path class="cls-12" d="M276.67,454.28v-19.5l18.5,10.68V465Z"/><path class="cls-12" d="M276.67,540.07v-19.5l18.5,10.68v19.5Z"/><path class="cls-12" d="M276.67,632v-19.5l18.5,10.68v19.5Z"/><path class="cls-12" d="M170.24,445.29v-60.5l18.5,10.69V456Z"/><path class="cls-12" d="M170.24,533V472.5l18.5,10.68v60.49Z"/><path class="cls-4" d="M614.15,517.77,677,554.06,534.84,636.13,472,599.85Z"/><path class="cls-10" d="M472,599.85l62.84,36.28v86.21L472,686.05Z"/><path class="cls-11" d="M472,599.85l62.84,36.28v16.43L472,616.28Z"/><path class="cls-8" d="M677,554.06,534.84,636.13v86.21L677,640.26v-86.2Z"/><path class="cls-13" d="M604.89,670.93v-19.5l-18.5,10.68v19.5Z"/><path class="cls-13" d="M582.8,684v-19.5l-18.5,10.68v19.5Z"/><path class="cls-13" d="M654.19,653.43V623L618,643.86v30.47l36.19-20.9Z"/><path class="cls-9" d="M677,554.06,534.84,636.13v16.43L677,570.49V554.06Z"/><path class="cls-14" d="M120.22,461l-9.94-5.74-25,14.42,108.59,62.7,25-14.43-9.93-5.73-16.55,9.56-88.72-51.23Z"/><path class="cls-14" d="M120.22,549.16l-9.94-5.73-25,14.42,108.59,62.69,25-14.42-9.93-5.73-16.55,9.55-88.72-51.22Z"/><path class="cls-14" d="M120.22,379.85l-9.94-5.74-25,14.42,108.59,62.7,25-14.42-9.93-5.74-16.55,9.56L103.67,389.4l16.55-9.55Z"/><path class="cls-14" d="M120.22,293.25l-9.94-5.74-25,14.43,108.59,62.69,25-14.42-9.93-5.74L192.39,354,103.67,302.8Z"/><path class="cls-5" d="M120.22,461v19.11l-16.55-9.56Z"/><path class="cls-5" d="M120.22,549.16v19.12l-16.55-9.56Z"/><path class="cls-5" d="M120.22,379.85V399l-16.55-9.56,16.55-9.55Z"/><path class="cls-5" d="M120.22,293.25v19.11l-16.55-9.56Z"/><path class="cls-8" d="M218.87,518l-25,14.43v23.9l25-14.42Z"/><path class="cls-8" d="M218.87,606.12l-25,14.42v23.91l25-14.42Z"/><path class="cls-8" d="M218.87,436.81l-25,14.42v23.9l25-14.42Z"/><path class="cls-8" d="M218.87,350.21l-25,14.42v23.9l25-14.42Z"/><path class="cls-15" d="M85.3,469.7l108.59,62.7v23.9L85.3,493.61Z"/><path class="cls-15" d="M85.3,557.85l108.59,62.69v23.91L85.3,581.76Z"/><path class="cls-15" d="M85.3,388.53l108.59,62.7v23.9L85.3,412.44Z"/><path class="cls-15" d="M85.3,301.94l108.59,62.69v23.9L85.3,325.84Z"/><path class="cls-16" d="M257.22,696.84l2.6,61.12h0a2.67,2.67,0,0,1-1.61,2.44,8.68,8.68,0,0,1-7.82,0,2.67,2.67,0,0,1-1.61-2.44h0l2.6-61.12a1.44,1.44,0,0,0,.85,1.19,4.58,4.58,0,0,0,4.14,0,1.44,1.44,0,0,0,.85-1.19Z"/><path class="cls-17" d="M258.71,731.85a2.73,2.73,0,0,0-1.27-.13c-1.47.21-2.2,1.73-3.88,1.39-.86-.18-1.57-.74-2.42-.94a6.65,6.65,0,0,0-1.26-.13l1.5-35.2a1.44,1.44,0,0,0,.85,1.19,4.58,4.58,0,0,0,4.14,0,1.44,1.44,0,0,0,.85-1.19Z"/><path class="cls-18" d="M254.48,671.41a12.3,12.3,0,0,0,1.8.5,22.84,22.84,0,0,0,2.31-.28,34.35,34.35,0,0,1,4.71-.81c2.77-.13,4.48,1.33,6.05,3.11-.05-.15.18.26.31.37.3.25.61.5.94.74.86.62,1.82,1.11,2.65,1.78,1.55,1.26,1.48,2.72,2.37,4.31a12.6,12.6,0,0,0,3,3.14c.49.43,1.12.58,1.5,1.28.79,1.46.55,3,.66,4.58.09,1.16.88,2.11,1,3.27.18,1.43-.28,2.9.07,4.31a13.63,13.63,0,0,1,.64,2.06A7.74,7.74,0,0,1,282,702c-.16.73-.08,1.47-.2,2.2a9.2,9.2,0,0,1-.71,2.23,6.38,6.38,0,0,1-.35.69c-.07.12-.18.48-.23.35a7.76,7.76,0,0,0-.78,2c-.1.73.18,1.45-.13,2.16s-1.26,1.31-1.73,2.08-.5,2-1.07,2.89-1.87,1.17-2.7,1.92c-1,1-1.53,2.3-2.62,3.21-1.9,1.59-4.19,1.76-6.42,2.66-.18.08-2.15.85-2,1.19a13.15,13.15,0,0,1-3.47,1.83c-.85.22-1.81-.28-2.69-.2-1.35.12-2.43,1.13-3.84.72-1.23-.35-2-1.6-3.29-1.78-1.47-.19-2.59,1.06-4.11.26-.78-.41-1.31-1.14-2.07-1.58s-1.54-.45-2.15-1c-1.18-1.06-1-2.08-2.75-2.37-2.58-.4-3.07-2-4.55-3.8a11,11,0,0,0-1.51-1.54,5.7,5.7,0,0,0-.55-.42c-.08-.05-.27-.26-.21-.19-1.47-1.43-3.46-2.77-4.24-4.75-.86-2.21.47-4.56.23-6.82-.15-1.41-.46-2.76-.72-4.12.29.06-.07-.58-.09-.87,0-.58-.12-1.16-.19-1.75-.21-1.78-.55-3.93.32-5.59,1-1.94,2.16-3.43,2.77-5.6.45-1.59.14-3.3,1.09-4.76s2.51-1.26,3.81-2.07c1-.6,1.23-1.86,2.14-2.53s2.22-.6,3.2-1a2.78,2.78,0,0,0,1.21-1.19c-.07-.23.52-.64.65-.75a15,15,0,0,1,2.58-1.88,10,10,0,0,1,7.42-1.25,22.19,22.19,0,0,1,2.43.78"/><path class="cls-19" d="M227.51,707.39a8.83,8.83,0,0,0,1.21,2.2c1,1.26,2.46,1.88,3.47,3.07.81,1,1,2.35,2,3.1s2.22.66,3.19,1.31c.82.56,1.32,1.58,2.23,2s1.6.09,2.4.24a8.33,8.33,0,0,1,2.21,1c-.15.05.25.18.38.26a5.52,5.52,0,0,0,.75.42,10.38,10.38,0,0,0,2.46.9c.81.16,1.64.1,2.44.31a8.86,8.86,0,0,0,2.49.72,14.73,14.73,0,0,0,2.32-.62c1.59-.33,3.21.24,4.81.1,1.3-.11,2.4-.94,3.7-1,1.76-.07,3.47.28,5.13-.54.8-.4,1-1.09,1.49-1.62,1.12-1.18,3.25-1.5,4.75-2.26a5.19,5.19,0,0,0,2.53-2.42,7.46,7.46,0,0,1-.71,2.07c-.63,1-1.88,1.17-2.7,1.92-1,1-1.53,2.3-2.62,3.21-1.9,1.59-4.19,1.76-6.42,2.66-.18.08-1.31.82-2,1.19a16.41,16.41,0,0,1-3.47,1.83c-.85.22-1.81-.28-2.69-.2-1.35.12-2.43,1.13-3.84.72-1.23-.35-2-1.6-3.29-1.78-1.47-.19-2.59,1.06-4.11.26-.78-.41-1.31-1.14-2.07-1.58s-1.54-.45-2.15-1c-1.18-1.06-1-2.08-2.75-2.37-2.58-.4-3.07-2-4.55-3.8a11,11,0,0,0-1.51-1.54,5.7,5.7,0,0,0-.55-.42c-.08-.05-.27-.26-.21-.19-1.47-1.43-3.46-2.77-4.24-4.75a6.3,6.3,0,0,1-.12-3.39Z"/><path class="cls-16" d="M305.93,725l2.6,61.13h0a2.64,2.64,0,0,1-1.61,2.43,8.66,8.66,0,0,1-7.81,0,2.64,2.64,0,0,1-1.61-2.43h0L300.08,725a1.46,1.46,0,0,0,.86,1.19,4.55,4.55,0,0,0,4.13,0,1.46,1.46,0,0,0,.86-1.19Z"/><path class="cls-17" d="M307.42,760a2.89,2.89,0,0,0-1.28-.13c-1.46.22-2.19,1.73-3.87,1.39-.86-.18-1.58-.73-2.42-.94a7.69,7.69,0,0,0-1.26-.13l1.49-35.2a1.46,1.46,0,0,0,.86,1.19,4.55,4.55,0,0,0,4.13,0,1.46,1.46,0,0,0,.86-1.19l1.49,35Z"/><path class="cls-18" d="M303.19,699.53a12.3,12.3,0,0,0,1.8.5,22.67,22.67,0,0,0,2.3-.28,33,33,0,0,1,4.72-.81c2.77-.13,4.47,1.33,6,3.11-.05-.15.19.26.31.37.31.25.62.5.94.74.87.62,1.82,1.11,2.65,1.78,1.56,1.26,1.49,2.72,2.37,4.31a12.64,12.64,0,0,0,3.05,3.14c.49.43,1.12.58,1.5,1.28.79,1.46.54,3,.66,4.58.09,1.16.87,2.11,1,3.27.18,1.43-.28,2.9.07,4.31a13.63,13.63,0,0,1,.64,2.06,7.74,7.74,0,0,1-.56,2.25c-.17.73-.08,1.47-.2,2.2a9.2,9.2,0,0,1-.71,2.23,6.47,6.47,0,0,1-.36.69c-.06.12-.17.48-.22.35a7.76,7.76,0,0,0-.78,2c-.11.73.18,1.45-.13,2.16s-1.26,1.31-1.74,2.07-.49,2-1.06,2.9-1.88,1.17-2.7,1.93c-1,.94-1.54,2.29-2.63,3.21-1.9,1.58-4.19,1.75-6.42,2.65-.17.08-2.14.85-2,1.19a13.37,13.37,0,0,1-3.48,1.83c-.84.22-1.81-.28-2.69-.2-1.34.12-2.42,1.13-3.83.72-1.23-.35-2-1.6-3.3-1.78-1.46-.19-2.59,1.06-4.1.26-.78-.41-1.32-1.14-2.07-1.57s-1.54-.46-2.16-1c-1.18-1.06-1-2.09-2.75-2.37-2.57-.4-3.06-2-4.54-3.8a12.27,12.27,0,0,0-1.51-1.55c-.18-.14-.36-.28-.55-.4a2.25,2.25,0,0,1-.21-.2c-1.47-1.43-3.47-2.76-4.24-4.74-.86-2.22.46-4.57.22-6.83-.15-1.41-.46-2.76-.71-4.12.29.06-.07-.58-.1-.87,0-.58-.12-1.16-.19-1.75-.21-1.78-.54-3.93.33-5.59,1-1.94,2.15-3.43,2.76-5.6.45-1.6.15-3.3,1.1-4.76s2.51-1.26,3.81-2.07c1-.6,1.23-1.86,2.14-2.53s2.21-.59,3.2-1a2.83,2.83,0,0,0,1.21-1.19c-.07-.23.52-.64.64-.75a15.76,15.76,0,0,1,2.58-1.88,10,10,0,0,1,7.43-1.25,22.9,22.9,0,0,1,2.43.78"/><path class="cls-19" d="M276.22,735.51a8.52,8.52,0,0,0,1.21,2.2c1,1.26,2.46,1.89,3.47,3.07.8,1,1,2.35,2,3.1s2.22.66,3.18,1.31,1.33,1.58,2.24,2,1.59.09,2.4.24a8.33,8.33,0,0,1,2.21,1c-.15,0,.25.18.37.26a6.31,6.31,0,0,0,.76.42,10.3,10.3,0,0,0,2.45.9c.81.16,1.64.1,2.45.31a8.77,8.77,0,0,0,2.49.72,14.73,14.73,0,0,0,2.32-.62c1.59-.33,3.2.24,4.81.11,1.3-.12,2.4-1,3.69-1,1.77-.06,3.48.28,5.14-.54.79-.39,1-1.1,1.49-1.62,1.12-1.18,3.25-1.5,4.75-2.26a5.15,5.15,0,0,0,2.53-2.42,7.46,7.46,0,0,1-.71,2.07c-.63,1-1.88,1.17-2.7,1.93-1,.94-1.54,2.29-2.63,3.21-1.9,1.58-4.19,1.75-6.42,2.65-.17.08-1.31.82-2,1.19a16.5,16.5,0,0,1-3.48,1.83c-.84.22-1.81-.28-2.69-.2-1.34.12-2.42,1.13-3.83.72-1.23-.35-2-1.6-3.3-1.78-1.46-.19-2.59,1.06-4.1.26-.78-.41-1.32-1.14-2.07-1.57s-1.54-.46-2.16-1c-1.18-1.06-1-2.09-2.75-2.36-2.57-.41-3.06-2-4.54-3.81a12.27,12.27,0,0,0-1.51-1.55c-.18-.14-.36-.28-.55-.4s-.28-.26-.21-.2c-1.47-1.43-3.47-2.76-4.24-4.74a6.33,6.33,0,0,1-.12-3.4Z"/></g></g></svg>